<svg width="1387" height="1547" viewBox="0 0 1387 1547" fill="none" xmlns="http://www.w3.org/2000/svg">
<path d="M1317.37 1004.04C1313.04 1011.61 1308.51 1019.39 1303.77 1027.37C1296.77 1039.13 1289.94 1051.63 1282.7 1064.85C1280.34 1069.17 1277.95 1073.53 1275.54 1077.91C1271.2 1079.85 1247.56 1089 1209.34 1077.35C1171.38 1065.79 1162.88 1036.56 1161.51 1030.51C1172.93 1012.76 1182.13 992.877 1188.54 972.316C1191.99 978.366 1198.54 987.117 1210.3 994.653C1212.75 996.225 1215.29 997.673 1217.96 999.004C1232.19 1006.09 1249.38 1009.64 1269.41 1009.64C1275.09 1009.64 1280.98 1009.35 1287.11 1008.78C1296.65 1007.89 1306.74 1006.31 1317.37 1004.04Z" fill="#A28CF1"/>
<path d="M1271.26 1085.61C1247.44 1128.24 1220.45 1171.06 1182.22 1194.44C1176.21 1192.92 1147.3 1184.95 1123.66 1166.27C1117.43 1161.35 1111.56 1155.69 1106.57 1149.2C1104.65 1146.7 1102.96 1144.24 1101.46 1141.84C1098.74 1137.49 1096.66 1133.31 1095.12 1129.35C1092.63 1122.96 1091.49 1117.13 1091.16 1112.03C1090.42 1100.92 1093.47 1093.26 1094.63 1090.8C1114.02 1083.35 1133.43 1067.99 1150.47 1046.13C1152.82 1043.1 1155.1 1039.99 1157.32 1036.8C1161.24 1048.38 1173.32 1072.43 1207.65 1082.89C1222.66 1087.46 1235.52 1088.99 1246.03 1088.99C1257.19 1088.99 1265.68 1087.26 1271.26 1085.61Z" fill="#A28CF1"/>
<path d="M1175.08 1198.5C1158.35 1207.33 1139.52 1212.5 1118.01 1212.5C1117.73 1212.5 1117.45 1212.5 1117.16 1212.49C1100.07 1212.38 1084.23 1210.45 1069.75 1207.39C1067.03 1206.43 1052.8 1200.75 1042.16 1182.89C1037.4 1174.9 1033.37 1164.49 1031.4 1150.97C1031.39 1150.9 1031.38 1150.85 1031.37 1150.78C1030.34 1143.63 1030.17 1137.35 1030.62 1131.84C1031.56 1120.35 1035.21 1112.19 1039.4 1106.5C1045.22 1098.59 1052.09 1095.41 1054.2 1094.57C1058.15 1095.31 1062.16 1095.76 1066.22 1095.91C1066.96 1095.93 1067.72 1095.94 1068.46 1095.94C1074.74 1095.94 1081.13 1094.99 1087.56 1093.17C1086.2 1097.48 1084.89 1103.94 1085.36 1111.97C1085.67 1117.47 1086.81 1123.69 1089.35 1130.48C1090.96 1134.8 1093.14 1139.35 1096.04 1144.09C1097.75 1146.91 1099.73 1149.78 1101.98 1152.72C1107 1159.25 1112.8 1164.97 1118.94 1169.97C1139.29 1186.51 1163.38 1195.06 1175.08 1198.5Z" fill="#A28CF1"/>
<path d="M1050.84 1202.57C1029.85 1196.3 1012.52 1187.97 999.501 1180.42C975.89 1166.74 961.543 1152.95 958.156 1149.54C959.507 1148.17 961.456 1145.78 964.1 1141.62C966.589 1137.68 969.706 1132.15 973.536 1124.37C980.31 1110.61 984.005 1096.51 985.973 1084.05C987.797 1072.6 988.173 1062.54 988.173 1055.38C988.173 1050.78 987.913 1046.9 987.556 1043.72C990.798 1049.11 995.207 1055.6 1000.86 1062.16C1013.93 1077.33 1029.22 1087.61 1045.83 1092.56C1042.94 1094.48 1039.54 1097.26 1036.3 1101.18C1035.32 1102.37 1034.33 1103.71 1033.36 1105.2C1029.51 1111.1 1026.01 1119.42 1024.95 1130.77H1024.94C1024.44 1136.09 1024.48 1142.09 1025.28 1148.82C1025.39 1149.79 1025.52 1150.79 1025.67 1151.8C1027.37 1163.42 1030.46 1172.9 1034.26 1180.63C1039.16 1190.6 1045.2 1197.64 1050.84 1202.57Z" fill="#A28CF1"/>
<path d="M1380.57 854.274C1377.99 883.625 1357.57 932.698 1321.22 997.248C1310.95 999.621 1301.49 1001.26 1292.77 1002.29C1257 1006.55 1233.78 1000.63 1219.22 993.118C1217.26 992.105 1215.46 991.073 1213.8 990.021C1197.79 979.89 1192.17 967.154 1190.97 963.999C1193.8 953.636 1195.9 943.148 1197.2 932.718C1197.2 932.718 1197.2 932.708 1197.2 932.698C1197.21 932.602 1197.21 932.505 1197.21 932.409C1197.21 932.312 1197.22 932.206 1197.21 932.11C1197.21 932.1 1197.21 932.1 1197.21 932.09C1197.05 930.325 1196.42 926.002 1194.19 924.121C1193.5 923.532 1192.68 922.944 1191.96 922.423C1191.42 922.027 1190.64 921.458 1190.34 921.187C1190.33 921.168 1190.32 921.159 1190.31 921.139C1190.12 920.589 1189.77 920.087 1189.26 919.711C1169.55 905.595 1146.93 855.982 1156.28 821.517C1161.55 802.075 1174.81 797.723 1182.24 796.855C1191.35 795.793 1198.11 798.929 1199.18 800.907C1200.28 802.943 1200.68 807.806 1201.14 813.441C1202.16 826.032 1203.72 845.059 1215.04 862.842C1223.87 876.678 1231.95 882.95 1239.05 881.454C1245.9 880.017 1250.53 871.757 1252.83 856.898C1254.37 846.98 1254.58 832.478 1254.81 817.117C1255.2 790.892 1255.65 761.164 1262.91 751.41C1275.61 734.36 1286.94 730.192 1304.71 736.029C1306.71 736.686 1308.55 737.496 1310.24 738.422C1320.23 743.874 1325.2 753.358 1327.3 758.588C1312.29 758.472 1304.41 764.802 1293.89 793.381C1284.11 819.973 1279.78 846.989 1277.69 859.967C1277.16 863.257 1276.71 866.103 1276.48 866.866C1276 868.39 1276.86 870.011 1278.39 870.484C1278.68 870.571 1278.96 870.609 1279.24 870.609C1280.48 870.609 1281.62 869.808 1282.01 868.564C1282.34 867.473 1282.7 865.302 1283.4 860.883C1283.9 857.805 1284.52 853.927 1285.31 849.45C1287.82 835.314 1292.04 815.187 1299.32 795.388C1309.2 768.546 1315.33 763.779 1328.53 764.31C1329.22 764.339 1329.93 764.377 1330.66 764.435C1330.97 764.512 1331.3 764.551 1331.63 764.522C1334.07 764.725 1336.72 765.053 1339.68 765.419C1347.29 766.355 1353.38 770.089 1357.78 776.506C1361.65 782.179 1363.58 789.203 1364 795.533C1364.13 797.549 1364.11 799.508 1363.94 801.322C1360.42 799.199 1356.96 797.8 1353.92 797.048C1337.76 793.005 1329.8 818.468 1321.79 849.623C1315.44 874.276 1307.21 898.899 1303.71 909.049L1292.84 895.821C1292.82 895.802 1292.81 895.792 1292.8 895.783C1292.78 895.754 1292.77 895.744 1292.77 895.744L1286.46 888.064C1285.45 886.829 1283.63 886.655 1282.38 887.668C1281.15 888.691 1280.97 890.514 1281.99 891.749L1312.14 928.414C1312.72 929.109 1313.55 929.466 1314.38 929.466C1315.02 929.466 1315.68 929.254 1316.22 928.81C1317.45 927.787 1317.63 925.964 1316.62 924.729L1311.65 918.688L1308.02 914.289C1310.41 907.467 1320.13 879.283 1327.39 851.071C1332.75 830.249 1337.63 814.84 1343.15 807.41C1346.04 803.512 1349.1 801.814 1352.51 802.663C1354.08 803.059 1361.5 805.201 1368.37 812.051C1375.75 819.442 1382.5 832.285 1380.57 854.274Z" fill="#FAEFF9"/>
<path d="M1197.21 932.091C1197.21 932.1 1197.21 932.1 1197.21 932.11C1197.22 932.207 1197.21 932.313 1197.21 932.409C1197.21 932.506 1197.21 932.602 1197.2 932.699C1197.2 932.708 1197.2 932.718 1197.2 932.718C1195.9 943.148 1193.8 953.636 1190.97 963.999C1192.17 967.154 1197.79 979.89 1213.8 990.021C1230.76 1000.75 1263.15 1010.65 1321.22 997.248C1357.57 932.699 1377.99 883.625 1380.57 854.274C1384.28 811.859 1355.77 803.474 1352.51 802.664C1342.61 800.184 1335.55 819.346 1327.39 851.071C1320.13 879.284 1310.41 907.467 1308.02 914.289L1316.61 924.729C1317.63 925.964 1317.45 927.787 1316.22 928.81C1315.68 929.254 1315.02 929.466 1314.38 929.466C1313.55 929.466 1312.72 929.109 1312.14 928.415L1281.99 891.75C1280.97 890.515 1281.15 888.691 1282.38 887.668C1283.63 886.655 1285.45 886.829 1286.46 888.064L1303.71 909.05C1307.21 898.899 1315.44 874.276 1321.79 849.624C1329.8 818.468 1337.76 793.005 1353.92 797.048C1356.96 797.801 1360.42 799.2 1363.94 801.322C1364.62 793.845 1362.9 783.993 1357.78 776.506C1353.38 770.09 1347.29 766.356 1339.67 765.42C1336.72 765.053 1334.07 764.725 1331.63 764.522C1331.3 764.551 1330.97 764.513 1330.66 764.435C1315.97 763.336 1309.72 767.137 1299.32 795.388C1289.73 821.449 1285.46 848.089 1283.4 860.884C1282.7 865.303 1282.34 867.474 1282 868.564C1281.62 869.809 1280.48 870.609 1279.24 870.609C1278.96 870.609 1278.68 870.571 1278.39 870.484C1276.86 870.011 1276 868.39 1276.48 866.866C1276.71 866.104 1277.16 863.257 1277.69 859.967C1279.78 846.99 1284.11 819.973 1293.89 793.382C1304.41 764.802 1312.29 758.473 1327.3 758.588C1324.84 752.471 1318.46 740.536 1304.71 736.03C1286.94 730.192 1275.61 734.361 1262.91 751.41C1255.64 761.165 1255.2 790.892 1254.81 817.117C1254.58 832.478 1254.37 846.98 1252.83 856.899C1250.53 871.758 1245.9 880.017 1239.05 881.455C1231.95 882.95 1223.87 876.678 1215.04 862.842C1203.72 845.06 1202.16 826.033 1201.14 813.441C1200.68 807.806 1200.28 802.943 1199.18 800.907C1198.11 798.929 1191.35 795.794 1182.24 796.855C1174.81 797.723 1161.55 802.075 1156.28 821.517C1146.93 855.982 1169.55 905.595 1189.26 919.711C1189.77 920.088 1190.12 920.59 1190.31 921.14C1190.32 921.159 1190.33 921.168 1190.34 921.188C1190.64 921.458 1191.42 922.027 1191.96 922.423C1192.68 922.944 1193.5 923.532 1194.19 924.121C1196.42 926.002 1197.05 930.325 1197.21 932.091ZM1369.26 805.134C1379.55 813.74 1388.56 829.332 1386.33 854.786C1383.67 885.082 1362.77 935.381 1325.6 1001.26C1325.59 1001.29 1325.58 1001.31 1325.56 1001.33C1320.28 1010.69 1314.68 1020.36 1308.74 1030.32C1301.79 1042.01 1294.99 1054.45 1287.78 1067.63C1249.14 1138.25 1205.36 1218.29 1118.03 1218.29C1117.72 1218.29 1117.43 1218.29 1117.12 1218.28C1099.92 1218.17 1083.94 1216.25 1069.32 1213.21C1069.09 1213.2 1068.86 1213.18 1068.62 1213.11C1068.56 1213.09 1068.41 1213.04 1068.2 1212.97C1037.9 1206.53 1013.52 1195.27 996.395 1185.31C968.655 1169.2 953.767 1153.35 953.149 1152.69C952.059 1151.52 952.126 1149.69 953.294 1148.6C953.294 1148.6 955.204 1139.32 969.677 1107.97C984.15 1076.61 979.847 1028.31 979.847 1028.31C979.847 1028.31 980.05 1028.43 980.368 1028.65C980.523 1027.69 981.15 1026.83 982.115 1026.44C983.6 1025.84 985.289 1026.54 985.897 1028.02C985.955 1028.17 992.246 1043.34 1005.37 1058.52C1019.69 1075.09 1036.14 1085.22 1054.4 1088.75C1054.51 1088.77 1054.61 1088.79 1054.72 1088.81C1058.55 1089.54 1062.45 1089.97 1066.42 1090.12C1092.63 1091.05 1121.61 1073.73 1145.89 1042.57C1149.46 1037.99 1152.86 1033.21 1156.08 1028.25C1156.08 1028.25 1156.08 1028.24 1156.09 1028.23C1168.85 1008.61 1178.82 986.258 1185.17 963.266C1185.17 963.256 1185.18 963.237 1185.18 963.227C1188.01 952.99 1190.11 942.637 1191.41 932.332C1191.23 930.769 1190.77 928.994 1190.4 928.492C1189.88 928.058 1189.2 927.575 1188.56 927.102C1186.8 925.829 1185.87 925.115 1185.35 924.092C1185.33 924.053 1185.33 924.015 1185.31 923.976C1174.44 915.881 1163.36 898.957 1156.23 879.525C1148.31 857.912 1146.3 836.212 1150.69 820.002C1157.08 796.421 1174.41 791.944 1181.57 791.104C1191.53 789.947 1201.51 793.044 1204.28 798.148C1205.95 801.255 1206.35 806.176 1206.91 812.978C1207.94 825.714 1209.37 843.159 1219.93 859.726C1229.99 875.511 1235.83 876.215 1237.86 875.791C1241.92 874.932 1245.3 867.725 1247.12 856.011C1248.58 846.497 1248.79 832.179 1249.03 817.03C1249.44 788.605 1249.87 759.206 1258.26 747.946C1272.4 728.967 1286.39 723.921 1306.51 730.53C1324.79 736.522 1331.69 753.089 1333.6 758.926C1335.72 759.119 1337.98 759.38 1340.38 759.669C1349.58 760.808 1357.25 765.497 1362.55 773.235C1369.51 783.405 1370.88 796.459 1369.26 805.134ZM1303.77 1027.37C1308.51 1019.39 1313.04 1011.62 1317.37 1004.04C1299.93 1007.77 1283.92 1009.64 1269.41 1009.64C1245.64 1009.64 1225.86 1004.64 1210.3 994.653C1198.54 987.117 1191.99 978.366 1188.54 972.316C1182.13 992.877 1172.93 1012.76 1161.51 1030.51C1162.88 1036.56 1171.38 1065.79 1209.34 1077.35C1247.56 1089 1271.2 1079.85 1275.54 1077.91C1277.95 1073.53 1280.34 1069.17 1282.7 1064.85C1289.94 1051.63 1296.77 1039.13 1303.77 1027.37ZM1271.26 1085.61C1265.68 1087.26 1257.19 1088.99 1246.02 1088.99C1235.52 1088.99 1222.66 1087.46 1207.65 1082.89C1173.32 1072.43 1161.24 1048.38 1157.32 1036.8C1155.1 1039.99 1152.82 1043.1 1150.46 1046.13C1133.42 1067.99 1114.02 1083.35 1094.63 1090.8C1092.43 1095.49 1083.37 1119 1106.57 1149.2C1130.47 1180.3 1174.62 1192.53 1182.22 1194.44C1220.45 1171.06 1247.44 1128.24 1271.26 1085.61ZM1118.01 1212.5C1139.52 1212.5 1158.35 1207.33 1175.08 1198.5C1159.85 1194.01 1123.62 1180.89 1101.98 1152.72C1081.33 1125.85 1084.34 1103.44 1087.56 1093.17C1081.13 1094.99 1074.74 1095.94 1068.46 1095.94C1067.72 1095.94 1066.96 1095.93 1066.22 1095.91C1062.16 1095.76 1058.15 1095.31 1054.2 1094.57C1049.82 1096.3 1025.15 1108.04 1031.4 1150.97C1037.77 1194.73 1065.82 1206.01 1069.75 1207.39C1084.23 1210.45 1100.07 1212.38 1117.16 1212.49C1117.45 1212.5 1117.73 1212.5 1118.01 1212.5ZM1036.3 1101.18C1039.54 1097.26 1042.94 1094.48 1045.83 1092.56C1029.22 1087.61 1013.93 1077.33 1000.86 1062.16C995.208 1055.6 990.798 1049.11 987.556 1043.72C987.913 1046.9 988.174 1050.78 988.174 1055.38C988.174 1070.34 986.534 1097.99 973.537 1124.37C965.673 1140.35 960.791 1146.87 958.157 1149.54C961.544 1152.95 975.891 1166.74 999.501 1180.42C1012.52 1187.97 1029.85 1196.3 1050.84 1202.57C1040.81 1193.82 1029.54 1178.36 1025.67 1151.8C1021.81 1125.31 1029.33 1109.66 1036.3 1101.18Z" fill="#41218C"/>
<path opacity="0.32" d="M1050.84 1202.57C1029.85 1196.3 1012.52 1187.97 999.501 1180.42C975.89 1166.74 961.543 1152.95 958.156 1149.54C959.507 1148.17 961.456 1145.78 964.1 1141.62C982.307 1155.78 1007.3 1172.11 1034.26 1180.63C1039.16 1190.6 1045.2 1197.64 1050.84 1202.57Z" fill="#41218C"/>
<path opacity="0.32" d="M985.975 1084.05C987.798 1072.6 988.175 1062.54 988.175 1055.38C988.175 1050.78 987.914 1046.9 987.557 1043.72C990.799 1049.11 995.208 1055.6 1000.86 1062.16C1013.93 1077.33 1029.22 1087.61 1045.83 1092.56C1042.94 1094.48 1039.54 1097.26 1036.3 1101.18C1035.32 1102.37 1034.33 1103.71 1033.36 1105.2C1013.34 1100.65 997.891 1093.11 985.975 1084.05Z" fill="#41218C"/>
<path opacity="0.32" d="M1054.2 1094.57C1058.15 1095.31 1062.16 1095.76 1066.22 1095.91C1066.97 1095.93 1067.72 1095.94 1068.46 1095.94C1074.74 1095.94 1081.13 1094.99 1087.56 1093.17C1086.21 1097.48 1084.89 1103.94 1085.36 1111.97C1072.35 1111.66 1057.12 1110.16 1039.4 1106.5C1045.22 1098.59 1052.09 1095.41 1054.2 1094.57Z" fill="#41218C"/>
<path opacity="0.32" d="M1118.94 1169.97C1139.29 1186.51 1163.38 1195.06 1175.08 1198.5C1158.35 1207.33 1139.52 1212.5 1118.01 1212.5C1117.73 1212.5 1117.45 1212.5 1117.16 1212.49C1100.07 1212.38 1084.23 1210.45 1069.75 1207.39C1067.03 1206.43 1052.8 1200.75 1042.16 1182.89C1044.57 1183.51 1046.98 1184.05 1049.41 1184.52C1077.93 1190.02 1101.59 1182.59 1118.94 1169.97Z" fill="#41218C"/>
<path opacity="0.18" d="M1197.21 932.11C1197.21 932.101 1197.21 932.101 1197.21 932.091C1197.05 930.325 1196.42 926.003 1194.19 924.121C1211.12 928.357 1226.12 956.454 1219.22 993.119C1217.26 992.106 1215.46 991.073 1213.8 990.021C1197.79 979.89 1192.17 967.154 1190.97 963.999C1193.8 953.636 1195.9 943.148 1197.2 932.718C1197.2 932.718 1197.2 932.708 1197.2 932.699C1197.21 932.602 1197.21 932.506 1197.21 932.409C1197.21 932.313 1197.22 932.207 1197.21 932.11Z" fill="#41218C"/>
<path opacity="0.32" d="M1246.03 1088.99C1257.19 1088.99 1265.68 1087.26 1271.26 1085.61C1247.44 1128.24 1220.45 1171.06 1182.22 1194.44C1176.21 1192.92 1147.3 1184.95 1123.66 1166.27C1139.99 1152.61 1149.68 1134.38 1151.24 1119.55C1153.65 1096.32 1138.48 1111.88 1091.16 1112.03C1090.42 1100.92 1093.47 1093.26 1094.63 1090.8C1114.02 1083.35 1133.43 1067.99 1150.47 1046.13C1152.82 1043.1 1155.1 1039.99 1157.32 1036.8C1161.24 1048.38 1173.32 1072.43 1207.65 1082.89C1222.66 1087.46 1235.52 1088.99 1246.03 1088.99Z" fill="#41218C"/>
<path opacity="0.32" d="M1287.11 1008.78C1296.65 1007.89 1306.74 1006.31 1317.37 1004.04C1313.04 1011.61 1308.51 1019.39 1303.77 1027.37C1296.77 1039.13 1289.94 1051.63 1282.7 1064.85C1280.34 1069.17 1277.95 1073.53 1275.54 1077.91C1271.2 1079.85 1247.56 1089 1209.34 1077.35C1171.38 1065.79 1162.88 1036.56 1161.51 1030.51C1172.93 1012.76 1182.13 992.877 1188.54 972.316C1191.99 978.366 1198.54 987.117 1210.3 994.653C1212.75 996.225 1215.29 997.673 1217.96 999.004C1216.72 1004 1215.08 1009.14 1212.99 1014.37C1194.33 1061.01 1202.69 1074.51 1213.62 1067.44C1222.94 1061.42 1253.27 1046.47 1287.11 1008.78Z" fill="#41218C"/>
<path opacity="0.18" d="M1380.57 854.274C1377.99 883.626 1357.57 932.699 1321.22 997.248C1310.95 999.622 1301.49 1001.26 1292.77 1002.29C1296.81 997.538 1300.89 992.443 1304.97 987.001C1345.49 933.007 1370.78 858.327 1367.37 833.298C1363.95 808.279 1343.15 807.411 1343.15 807.411C1346.04 803.513 1349.1 801.815 1352.51 802.664C1355.77 803.474 1384.28 811.859 1380.57 854.274Z" fill="#41218C"/>
<path opacity="0.18" d="M1321.79 849.623C1315.44 874.276 1307.21 898.899 1303.72 909.05L1292.84 895.821C1293.54 896.554 1299.47 901.697 1304.01 868.631C1308.83 833.462 1321.43 793.42 1336.84 788.595C1345.68 785.826 1356.44 790.795 1364 795.533C1364.13 797.55 1364.11 799.508 1363.94 801.322C1360.42 799.199 1356.96 797.8 1353.92 797.048C1337.77 793.005 1329.81 818.468 1321.79 849.623Z" fill="#41218C"/>
<path opacity="0.18" d="M1293.89 793.382C1284.11 819.973 1279.78 846.99 1277.69 859.967C1277.16 863.257 1276.71 866.104 1276.48 866.866C1276.48 866.866 1273.61 787.149 1289.53 755.79C1295.02 744.984 1302.62 740.14 1310.24 738.423C1320.23 743.874 1325.2 753.359 1327.3 758.589C1312.29 758.473 1304.41 764.802 1293.89 793.382Z" fill="#41218C"/>
<path opacity="0.8" d="M1025.28 1148.82C1012.92 1144.31 1003.58 1137.5 996.693 1132.29C981.738 1120.99 991.348 1115.62 991.348 1115.62C1000.8 1123.31 1012.49 1128.07 1024.94 1130.77C1024.44 1136.09 1024.48 1142.09 1025.28 1148.82Z" fill="#A28CF1"/>
<path opacity="0.8" d="M1096.04 1144.09C1091.84 1145.76 1087.19 1147.4 1082.08 1148.97C1061.59 1155.27 1044.88 1154.53 1031.37 1150.78C1030.34 1143.63 1030.17 1137.35 1030.62 1131.84C1050.69 1135.17 1072.18 1133.58 1089.35 1130.48C1090.96 1134.8 1093.14 1139.35 1096.04 1144.09Z" fill="#A28CF1"/>
<path opacity="0.8" d="M1101.46 1141.84C1098.74 1137.49 1096.66 1133.31 1095.12 1129.35C1101.35 1128.03 1106.84 1126.54 1111.25 1125.07C1132.33 1118.07 1128.54 1129.89 1101.46 1141.84Z" fill="#A28CF1"/>
<path d="M231.962 1315.85C218.309 1321.1 197.574 1313.88 194.477 1311.41C194.216 1310.18 194.168 1306.55 194.139 1303.31C194.023 1293.21 193.859 1277.95 188.9 1265.38C181.103 1245.64 168.232 1244.08 167.692 1244.03C167.682 1244.02 167.663 1244.03 167.653 1244.03C167.528 1244.02 167.412 1244.02 167.296 1244.03C167.219 1244.03 167.152 1244.02 167.074 1244.03C166.968 1244.04 166.862 1244.07 166.766 1244.1C166.679 1244.12 166.602 1244.13 166.524 1244.16C166.495 1244.16 166.476 1244.17 166.447 1244.17C131.394 1256.28 112.637 1279.29 101.425 1293.04C98.2311 1296.96 95.7127 1300.05 93.8312 1301.6C91.9208 1303.17 89.2096 1303.72 85.7843 1303.26C78.6732 1302.28 70.8096 1297.28 67.2974 1293.54C66.8632 1293.08 66.4869 1292.62 66.1975 1292.21C65.3677 1291.01 64.3739 1289.92 63.4187 1288.87C59.0575 1284.04 54.5419 1279.07 65.0397 1261.25C78.6539 1238.12 105.458 1220.14 107.388 1219.26C108.574 1218.77 109.366 1217.7 109.433 1216.47C109.452 1216.11 109.424 1215.69 109.279 1215.26C109.279 1215.25 109.269 1215.24 109.269 1215.23C108.999 1214.45 108.372 1213.6 107.05 1212.86C102.805 1210.5 87.4535 1207.42 67.6351 1221.39C56.462 1229.25 48.5115 1237.51 42.1144 1244.16C36.1419 1250.36 31.4237 1255.27 28.1335 1255.27C23.8688 1255.27 16.9989 1251.62 12.0009 1243.37C8.97124 1238.38 6.62661 1231.73 5.9319 1223.19C4.05041 1199.98 21.6013 1189.69 39.0172 1182.7C58.2856 1174.96 76.1839 1178.93 76.3672 1178.97C77.9206 1179.33 79.4741 1178.36 79.8407 1176.81C80.1012 1175.67 79.6574 1174.53 78.789 1173.86C78.4609 1173.61 78.0846 1173.42 77.6698 1173.33C76.9654 1173.16 61.9328 1169.79 43.8705 1174.94C38.776 1175.15 31.9158 1174.83 26.0976 1173.64C20.8198 1172.56 16.3911 1170.78 14.9245 1168.03C13.1588 1164.72 9.45366 1156.2 13.1298 1148.56C16.1981 1142.16 23.8109 1137.8 35.7367 1135.58C67.4132 1129.68 118.349 1146.87 118.86 1147.05L120.384 1147.57L128.065 1141.23C131.114 1141.7 140.367 1143.62 153.894 1150.59L153.904 1150.6C174.861 1161.41 206.074 1184.38 240.308 1232.99C236.882 1237.04 235.088 1240.29 235.175 1242.45C235.3 1245.5 237.239 1250.28 239.922 1256.89C242.932 1264.34 246.685 1273.6 248.249 1281.93C250.584 1294.4 247.535 1309.85 231.962 1315.85Z" fill="#FAEFF9"/>
<path d="M335.058 1170.09C336.274 1158.75 335.56 1131.65 309.875 1098.39C309.615 1098.07 309.354 1097.73 309.094 1097.39C290.202 1073.31 271.763 1061.7 258.834 1056.12C255.331 1054.61 252.234 1053.54 249.639 1052.79C256.499 1049.55 263.002 1046.71 269.052 1044.23C302.745 1030.45 328.748 1025.16 336.602 1023.77C336.303 1025.44 335.898 1027.73 335.473 1030.55C335.319 1031.58 335.155 1032.68 334.991 1033.84C333.408 1045.07 331.691 1062.36 332.386 1081.19C333.592 1113.76 354.336 1141.5 360.126 1145.35C363.831 1147.82 371.791 1152.48 377.04 1155.5C369.9 1157.1 355.253 1161.08 335.058 1170.09Z" fill="#A28CF1"/>
<path d="M328.757 1172.98C321.829 1176.25 314.352 1180.08 306.363 1184.56C299.001 1188.7 292.083 1192.86 285.647 1196.97C285.647 1186.79 281.652 1165.03 255.003 1133.13C252.581 1130.24 250.15 1127.55 247.699 1125.05C228.093 1105.06 207.84 1097.3 193.425 1094.4C189.199 1093.54 185.475 1093.11 182.406 1092.89C202.948 1077.76 223.124 1065.96 241.263 1056.87C242.768 1057.08 246.358 1057.73 251.462 1059.55C263.272 1063.74 283.129 1074.16 303.565 1099.76C303.893 1100.15 304.221 1100.56 304.539 1100.97C333.292 1137.62 329.915 1166.77 328.757 1172.98Z" fill="#A28CF1"/>
<path d="M279.569 1200.92C264.102 1211.2 251.964 1220.92 244.322 1228.64C226.733 1203.83 209.944 1185.74 195.191 1172.6C182.918 1161.68 172.044 1154.19 163.293 1149.1C155.313 1144.46 148.414 1141.37 142.857 1139.31C138.824 1137.83 135.495 1136.88 132.977 1136.29C146.649 1122.01 160.774 1109.51 174.842 1098.62C179.628 1098.38 203.74 1098.2 229.56 1117.01C229.569 1117.01 229.569 1117.02 229.569 1117.02C229.579 1117.02 229.589 1117.04 229.589 1117.04C233.969 1120.22 238.388 1123.95 242.778 1128.32C245.393 1130.92 247.989 1133.76 250.565 1136.83C281.595 1173.99 280.283 1196.28 279.569 1200.92Z" fill="#A28CF1"/>
<path d="M167.692 1244.03C168.232 1244.08 181.103 1245.64 188.9 1265.38C193.859 1277.95 194.023 1293.21 194.139 1303.31C194.168 1306.55 194.216 1310.18 194.477 1311.41C197.574 1313.88 218.309 1321.1 231.962 1315.85C247.535 1309.85 250.584 1294.4 248.249 1281.93C246.685 1273.6 242.932 1264.34 239.922 1256.89C237.239 1250.28 235.3 1245.5 235.175 1242.45C235.088 1240.29 236.882 1237.04 240.308 1232.99C183.979 1153.02 135.842 1142.44 128.065 1141.23L120.384 1147.57L118.86 1147.05C118.349 1146.87 67.4132 1129.68 35.7366 1135.58C23.8109 1137.8 16.1981 1142.16 13.1298 1148.56C9.45365 1156.2 13.1588 1164.72 14.9245 1168.03C18.012 1173.82 34.1639 1175.33 43.8705 1174.94C61.9328 1169.79 76.9654 1173.16 77.6697 1173.33C79.2328 1173.69 80.1977 1175.25 79.8407 1176.81C79.474 1178.36 77.9206 1179.33 76.3672 1178.97C76.1838 1178.93 58.2856 1174.96 39.0172 1182.7C21.6013 1189.69 4.0504 1199.98 5.93189 1223.19C7.76514 1245.86 21.2926 1255.27 28.1335 1255.27C31.4237 1255.27 36.1419 1250.36 42.1144 1244.16C48.5115 1237.51 56.462 1229.25 67.6351 1221.39C87.4535 1207.42 102.805 1210.5 107.05 1212.86C109.124 1214.02 109.491 1215.46 109.433 1216.47C109.366 1217.7 108.574 1218.77 107.388 1219.26C105.458 1220.14 78.6539 1238.12 65.0396 1261.24C54.5419 1279.07 59.0575 1284.04 63.4187 1288.87C64.3739 1289.92 65.3677 1291.01 66.1975 1292.21C68.8412 1295.98 77.7855 1302.16 85.7843 1303.26C89.2096 1303.72 91.9208 1303.17 93.8312 1301.6C95.7127 1300.05 98.2311 1296.96 101.425 1293.04C112.637 1279.29 131.394 1256.28 166.447 1244.17C166.476 1244.17 166.495 1244.16 166.524 1244.16C166.602 1244.13 166.679 1244.12 166.766 1244.1C166.862 1244.07 166.968 1244.04 167.074 1244.03C167.151 1244.02 167.219 1244.03 167.296 1244.03C167.412 1244.02 167.528 1244.02 167.653 1244.03C167.663 1244.03 167.682 1244.02 167.692 1244.03ZM386.273 1155.66L385.047 1156.45C385.105 1156.62 385.153 1156.8 385.182 1156.98C385.414 1158.56 384.324 1160.04 382.741 1160.27C382.452 1160.31 353.216 1164.89 309.199 1189.61C275.815 1208.35 255.196 1225.43 246.222 1234.99C246.135 1235.1 246.039 1235.2 245.943 1235.29C242.749 1238.72 241.099 1241.17 240.964 1242.29C241.051 1244.26 243.106 1249.34 245.286 1254.72C248.393 1262.4 252.272 1271.96 253.941 1280.87C257.415 1299.41 249.609 1315.27 234.046 1321.25C229.781 1322.89 224.995 1323.55 220.19 1323.55C206.084 1323.55 191.756 1317.86 189.585 1314.6C188.504 1312.98 188.427 1310.45 188.35 1303.37C188.243 1293.7 188.079 1279.08 183.516 1267.51C177.919 1253.32 169.853 1250.44 167.634 1249.9C134.597 1261.53 116.66 1283.52 105.911 1296.7C102.515 1300.87 99.8328 1304.16 97.5074 1306.07C94.9891 1308.14 91.7375 1309.2 87.9842 1309.2C87.0193 1309.2 86.0158 1309.13 84.9931 1308.99C75.7979 1307.73 65.2133 1300.88 61.46 1295.53C60.8328 1294.63 60.003 1293.71 59.1347 1292.76C54.1752 1287.29 47.3922 1279.8 60.0513 1258.3C71.2341 1239.32 91.0332 1223.33 100.373 1216.87C94.8637 1216.13 84.1922 1216.8 70.9639 1226.11C60.2442 1233.67 52.506 1241.71 46.2923 1248.17C39.0847 1255.65 33.8841 1261.06 28.1335 1261.06C18.0699 1261.06 2.22682 1249.17 0.16201 1223.66C-1.77737 1199.77 14.0175 1187.7 30.2658 1180.16C22.1417 1179.18 13.0044 1176.72 9.82031 1170.76C7.63971 1166.67 3.08555 1156.07 7.90989 1146.05C11.8272 1137.9 20.8294 1132.46 34.6753 1129.89C65.0493 1124.22 110.138 1138.11 119.188 1141.06L125.199 1136.09C140.27 1119.89 155.959 1105.9 171.551 1093.84C171.773 1093.6 172.034 1093.4 172.323 1093.24C195.615 1075.31 218.675 1061.67 239.16 1051.44C239.324 1051.35 239.488 1051.26 239.671 1051.19C249.474 1046.31 258.688 1042.21 267.044 1038.79C308.032 1022.05 337.036 1017.8 338.242 1017.63C339.824 1017.4 341.291 1018.5 341.522 1020.09C341.628 1020.83 341.435 1021.53 341.049 1022.1C340.2 1026.73 338.647 1040.68 340.104 1077.33C342.034 1125.82 386.273 1155.66 386.273 1155.66ZM377.039 1155.5C371.79 1152.48 363.83 1147.82 360.125 1145.35C354.336 1141.5 333.591 1113.76 332.385 1081.19C331.42 1055.07 335.106 1031.92 336.601 1023.77C328.747 1025.16 302.744 1030.45 269.051 1044.23C263.001 1046.71 256.498 1049.55 249.638 1052.79C261.824 1056.34 285.087 1066.8 309.093 1097.39C335.55 1131.1 336.283 1158.63 335.058 1170.09C355.252 1161.08 369.899 1157.1 377.039 1155.5ZM328.757 1172.98C329.915 1166.76 333.292 1137.62 304.539 1100.97C274.927 1063.23 246.29 1057.58 241.263 1056.87C223.123 1065.96 202.948 1077.76 182.406 1092.89C197.207 1093.9 227.571 1100.28 255.003 1133.13C281.652 1165.03 285.647 1186.79 285.647 1196.97C292.082 1192.86 299.001 1188.7 306.362 1184.56C314.352 1180.08 321.829 1176.25 328.757 1172.98ZM279.568 1200.92C280.282 1196.28 281.594 1173.99 250.564 1136.83C218.222 1098.11 180.92 1098.31 174.841 1098.62C160.774 1109.51 146.648 1122.01 132.976 1136.29C138.968 1137.7 149.523 1141.09 163.292 1149.1C182.56 1160.3 212.095 1183.18 244.322 1228.64C251.963 1220.92 264.101 1211.2 279.568 1200.92Z" fill="#41218C"/>
<path opacity="0.32" d="M250.565 1136.84C281.595 1173.99 280.283 1196.28 279.569 1200.92C264.102 1211.2 251.964 1220.92 244.322 1228.64C226.733 1203.83 209.944 1185.74 195.191 1172.6C201.145 1163.69 209.867 1153.97 222.391 1143.67C229.444 1137.87 236.256 1132.78 242.779 1128.33C245.393 1130.92 247.989 1133.76 250.565 1136.84Z" fill="#41218C"/>
<path opacity="0.32" d="M304.539 1100.97C333.293 1137.62 329.916 1166.76 328.758 1172.98C321.83 1176.25 314.352 1180.08 306.363 1184.56C299.001 1188.7 292.083 1192.85 285.647 1196.97C285.647 1186.79 281.653 1165.03 255.003 1133.13C252.581 1130.23 250.15 1127.55 247.699 1125.05C270.817 1110.06 290.095 1103.04 303.565 1099.75C303.893 1100.15 304.221 1100.56 304.539 1100.97Z" fill="#41218C"/>
<path opacity="0.32" d="M335.058 1170.09C336.274 1158.75 335.56 1131.65 309.875 1098.39C319.369 1096.62 324.666 1096.93 324.666 1096.93C324.666 1096.93 309.238 1067.22 334.99 1033.84C333.408 1045.07 331.691 1062.36 332.385 1081.19C333.591 1113.76 354.336 1141.5 360.125 1145.35C363.83 1147.82 371.79 1152.48 377.039 1155.5C369.899 1157.1 355.253 1161.08 335.058 1170.09Z" fill="#41218C"/>
<path opacity="0.18" d="M231.961 1315.85C218.308 1321.1 197.573 1313.88 194.476 1311.41C194.215 1310.18 194.167 1306.55 194.138 1303.31C194.022 1293.21 193.858 1277.95 188.899 1265.38C181.103 1245.64 168.232 1244.08 167.691 1244.03C167.682 1244.02 167.662 1244.03 167.653 1244.03C167.527 1244.02 167.411 1244.02 167.296 1244.03C167.218 1244.03 167.151 1244.02 167.074 1244.03C166.968 1244.04 166.861 1244.07 166.765 1244.1C166.678 1244.12 166.601 1244.13 166.524 1244.16C166.495 1244.16 166.476 1244.17 166.447 1244.17C131.393 1256.28 112.636 1279.29 101.424 1293.04C98.2305 1296.96 95.7122 1300.05 93.8307 1301.6C91.9202 1303.17 89.209 1303.72 85.7837 1303.26C78.6727 1302.28 70.809 1297.28 67.2969 1293.54C72.6519 1290.54 78.856 1286.43 81.519 1278.43C86.6617 1262.99 123.655 1239.19 140.694 1235.65C157.743 1232.12 172.863 1239.51 189.034 1255.27C205.205 1271.03 199.551 1293.87 199.879 1298.36C200.198 1302.87 217.884 1297.4 223.036 1269.42C228.179 1241.44 214.989 1210.89 202.446 1196.97C189.902 1183.04 174.156 1169.72 153.903 1150.6C174.86 1161.41 206.074 1184.38 240.307 1232.99C236.882 1237.04 235.087 1240.29 235.174 1242.45C235.3 1245.5 237.239 1250.28 239.921 1256.89C242.932 1264.34 246.685 1273.6 248.248 1281.93C250.583 1294.4 247.534 1309.85 231.961 1315.85Z" fill="#41218C"/>
<path opacity="0.18" d="M109.268 1215.23C108.998 1214.45 108.371 1213.6 107.049 1212.86C102.804 1210.5 87.4526 1207.42 67.6342 1221.39C56.4611 1229.25 48.5105 1237.51 42.1135 1244.16C36.141 1250.36 31.4228 1255.27 28.1326 1255.27C23.8679 1255.27 16.998 1251.62 12 1243.37C15.6183 1244.69 19.3426 1246.14 22.0153 1246.26C29.0974 1246.59 28.451 1235.97 54.5024 1213.78C79.6371 1192.37 106.875 1203.89 109.268 1215.23Z" fill="#41218C"/>
<path opacity="0.18" d="M78.789 1173.86C78.461 1173.61 78.0847 1173.42 77.6698 1173.33C76.9654 1173.16 61.9328 1169.79 43.8705 1174.94C38.776 1175.15 31.9158 1174.83 26.0977 1173.64C31.6456 1171.99 38.4576 1168.38 49.9974 1165.38C70.4237 1160.07 87.6272 1167.79 90.2034 1173.26C92.7796 1178.72 84.8967 1176.56 78.789 1173.86Z" fill="#41218C"/>
<path opacity="0.8" d="M229.56 1117.01C229.569 1117.01 229.569 1117.02 229.569 1117.02V1117.03C228.556 1116.48 189.093 1095.23 176.077 1104.75C167.76 1110.84 152.776 1127.7 142.857 1139.31C138.824 1137.83 135.495 1136.88 132.977 1136.29C146.649 1122.01 160.774 1109.51 174.842 1098.62C179.628 1098.38 203.74 1098.2 229.56 1117.01Z" fill="#A28CF1"/>
<path opacity="0.8" d="M241.263 1056.87C242.768 1057.08 246.358 1057.73 251.462 1059.55C221.204 1073.96 200.893 1088.64 193.425 1094.4C189.199 1093.54 185.475 1093.11 182.406 1092.89C202.948 1077.76 223.124 1065.96 241.263 1056.87Z" fill="#A28CF1"/>
<path opacity="0.8" d="M336.602 1023.77C336.303 1025.44 335.898 1027.73 335.473 1030.55C321.676 1033.41 300.883 1038.98 273.847 1049.76C268.627 1051.84 263.62 1053.97 258.834 1056.12C255.331 1054.61 252.234 1053.54 249.639 1052.79C256.499 1049.55 263.002 1046.71 269.052 1044.23C302.745 1030.45 328.748 1025.16 336.602 1023.77Z" fill="#A28CF1"/>
<path d="M595.638 1429.68C595.155 1435.1 591.431 1441.88 582.525 1443.12C581.29 1443.3 580.084 1443.4 578.897 1443.45C571.786 1443.71 565.679 1441.65 561.781 1437.58C558.606 1434.29 557.313 1430.03 558.114 1425.6C559.137 1419.98 562.466 1417.5 565.254 1416.4C564.694 1418.47 564.173 1420.52 563.71 1422.49C563.595 1422.97 562.697 1427.2 565.264 1430.87C567.029 1433.39 569.885 1434.9 573.745 1435.36C574.411 1435.43 575.047 1435.47 575.675 1435.47C576.244 1435.47 576.794 1435.44 577.325 1435.38C583.625 1434.71 587.774 1430.3 589.762 1427.58V1427.57C590.601 1426.43 591.055 1425.58 591.122 1425.47L591.306 1425.11L591.392 1424.72C591.402 1424.65 591.778 1422.91 592.444 1420.11C594.161 1421.66 595.146 1423.88 595.522 1426.22C595.705 1427.38 595.744 1428.55 595.638 1429.68Z" fill="#56F2F1"/>
<path d="M600.849 1377.45C592.56 1392.81 586.665 1419.18 585.816 1423.08C585.121 1424.25 582.449 1428.23 578.03 1429.36C576.93 1429.65 575.733 1429.76 574.421 1429.6C572.289 1429.35 570.812 1428.67 570.031 1427.58C568.902 1426 569.346 1423.82 569.346 1423.82C573.012 1408.25 580.036 1388.71 583.645 1379.09C584.996 1375.48 585.874 1373.27 585.903 1373.19C585.98 1373 586.038 1372.79 586.067 1372.6C588.19 1373.57 591.268 1374.85 594.268 1375.64C596.603 1376.25 598.957 1376.91 600.849 1377.45Z" fill="#FAEFF9"/>
<path d="M613.681 1470.79C606.088 1476.62 553.146 1516.69 515.342 1530.76C502.046 1535.71 489.098 1538.26 477.712 1539.45C462.94 1541 450.792 1540.26 443.923 1539.52C442.07 1539.32 440.603 1539.12 439.571 1538.96C438.249 1533.1 434.998 1512.18 446.972 1483.78C459.775 1453.45 484.669 1436.49 489.715 1433.3C491.925 1433.76 494.067 1434.28 496.141 1434.86C507.999 1438.11 517.571 1443.04 525.155 1448.3C542.243 1460.17 549.19 1473.76 549.296 1473.97C550 1475.4 551.737 1475.99 553.174 1475.28C554.602 1474.58 555.191 1472.84 554.487 1471.4C554.178 1470.79 550.753 1464.03 543.005 1455.85C540.535 1453.23 537.611 1450.47 534.205 1447.72V1447.71C533.182 1446.89 532.121 1446.07 531.012 1445.24C534.398 1441.12 542.165 1432.37 552.277 1425.51C552.065 1427.09 552.055 1428.65 552.219 1430.18C552.673 1434.41 554.525 1438.38 557.603 1441.6C562.167 1446.35 568.873 1449 576.582 1449.24C576.958 1449.25 577.344 1449.26 577.73 1449.26C579.554 1449.26 581.426 1449.12 583.327 1448.85C592.802 1447.53 598.446 1441.22 600.54 1434.49C602.315 1436.49 604.718 1439.66 607.805 1444.62C614.762 1455.8 614.077 1467.36 613.681 1470.79Z" fill="#A56EE3"/>
<path d="M482.062 1431.47C481.695 1431.73 481.309 1432.01 480.914 1432.31C470.937 1439.68 452.44 1455.94 441.644 1481.52C430.413 1508.13 431.773 1528.36 433.326 1537.34C430.644 1537.03 426.64 1536.21 422.259 1534.05C420.561 1533.22 418.815 1532.18 417.068 1530.9C415.013 1529.39 408.163 1523.51 406.465 1511.2C405.104 1501.28 407.024 1484.94 423.909 1463.37C447.442 1433.34 473.368 1431.24 482.062 1431.47Z" fill="#FAEFF9"/>
<path d="M612.725 1441.57C622.219 1456.83 619.344 1472.27 619.209 1472.93L619.006 1473.99L618.157 1474.65C615.745 1476.53 558.798 1520.77 517.367 1536.18C495.735 1544.23 475.289 1546.22 460.382 1546.22C446.507 1546.22 437.437 1544.5 436.675 1544.35L435.006 1544.02L434.765 1543.27C430.751 1543.08 422.25 1541.88 413.653 1535.57C406.909 1530.63 402.085 1521.81 400.734 1511.99C399.209 1500.97 401.216 1482.96 419.356 1459.81C449.71 1421.06 484.436 1425.75 485.903 1425.96L487.36 1426.18L488.064 1427.53L488.672 1427.18L489.733 1427.4C504.862 1430.39 516.865 1435.85 526.234 1441.93C530.335 1436.85 541.344 1424.35 555.788 1416.63C558.982 1412.37 563.574 1410.49 567.077 1409.93C572.702 1390.88 580.431 1371.3 580.517 1371.06C580.846 1370.24 581.511 1369.66 582.293 1369.39C582.293 1369.39 588.478 1366.63 591.449 1366.15C594.421 1365.66 602.864 1370 604.475 1372.26C606.086 1374.51 606.164 1376.1 606.395 1376.44C606.395 1376.44 606.386 1376.45 606.395 1376.46C606.887 1377.31 606.945 1378.4 606.424 1379.33C601.059 1388.83 596.583 1403.95 593.939 1414.1C598.377 1416.63 601.175 1421.53 601.465 1427.33C604.601 1429.84 608.46 1434.7 612.725 1441.57ZM613.68 1470.79C614.076 1467.36 614.761 1455.8 607.804 1444.62C604.716 1439.66 602.314 1436.49 600.538 1434.49C598.445 1441.22 592.8 1447.53 583.325 1448.85C581.424 1449.12 579.553 1449.26 577.729 1449.26C569.537 1449.26 562.388 1446.58 557.602 1441.6C553.405 1437.23 551.494 1431.41 552.276 1425.51C542.164 1432.37 534.397 1441.12 531.01 1445.24C547.355 1457.34 554.051 1470.52 554.485 1471.4C555.19 1472.84 554.601 1474.58 553.173 1475.28C551.735 1475.99 549.999 1475.4 549.294 1473.97C549.14 1473.65 533.133 1442.36 489.714 1433.3C484.668 1436.49 459.774 1453.45 446.97 1483.78C434.996 1512.18 438.248 1533.1 439.57 1538.96C447.414 1540.14 480.162 1543.85 515.341 1530.76C553.144 1516.69 606.086 1476.62 613.68 1470.79ZM595.637 1429.68C595.946 1426.27 595.01 1422.43 592.443 1420.11C591.777 1422.91 591.401 1424.65 591.392 1424.72L591.305 1425.11L591.121 1425.47C590.89 1425.9 585.737 1435.47 575.674 1435.47C575.047 1435.47 574.41 1435.43 573.744 1435.36C569.885 1434.9 567.029 1433.39 565.263 1430.87C562.696 1427.2 563.594 1422.97 563.71 1422.49C564.173 1420.52 564.694 1418.47 565.253 1416.4C562.465 1417.5 559.136 1419.98 558.113 1425.6C557.312 1430.03 558.605 1434.29 561.78 1437.58C566.324 1442.32 573.879 1444.34 582.524 1443.12C591.43 1441.88 595.155 1435.1 595.637 1429.68ZM600.847 1377.45C598.956 1376.91 596.602 1376.25 594.267 1375.64C591.266 1374.85 588.188 1373.57 586.065 1372.6C586.037 1372.79 585.979 1373 585.901 1373.19C585.786 1373.48 574.381 1402.41 569.344 1423.82C569.344 1423.82 568.901 1426 570.029 1427.58C570.811 1428.67 572.287 1429.35 574.42 1429.6C581 1430.39 584.946 1424.54 585.815 1423.08C586.664 1419.18 592.559 1392.81 600.847 1377.45ZM482.063 1431.47C473.369 1431.24 447.443 1433.34 423.91 1463.38C407.025 1484.94 405.105 1501.28 406.465 1511.2C408.163 1523.51 415.014 1529.39 417.069 1530.9C423.35 1535.5 429.612 1536.92 433.327 1537.34C431.774 1528.36 430.413 1508.14 441.644 1481.52C452.875 1454.91 472.423 1438.39 482.063 1431.47Z" fill="#41218C"/>
<path opacity="0.18" d="M600.847 1377.45C592.559 1392.81 586.663 1419.18 585.814 1423.08C585.12 1424.25 582.447 1428.23 578.028 1429.36C577.005 1427.4 576.407 1424.83 576.783 1421.55C578.047 1410.62 589.037 1382.64 589.037 1382.64L583.643 1379.09C584.994 1375.48 585.872 1373.27 585.901 1373.19C585.978 1373 586.036 1372.79 586.065 1372.6C588.188 1373.57 591.266 1374.85 594.267 1375.64C596.602 1376.25 598.956 1376.91 600.847 1377.45Z" fill="#41218C"/>
<path opacity="0.32" d="M595.637 1429.68C595.155 1435.1 591.431 1441.88 582.525 1443.12C581.29 1443.3 580.084 1443.4 578.897 1443.45C579.505 1441.56 579.736 1438.71 577.324 1435.38C583.625 1434.71 587.774 1430.3 589.761 1427.58V1427.57C591.604 1427.14 593.534 1426.68 595.522 1426.22C595.705 1427.38 595.744 1428.55 595.637 1429.68Z" fill="#41218C"/>
<path opacity="0.32" d="M613.68 1470.79C606.087 1476.62 553.145 1516.69 515.341 1530.76C502.045 1535.71 489.097 1538.26 477.711 1539.45C465.072 1497.76 483.143 1467.29 496.642 1456.65C506.677 1448.74 515.283 1446.16 525.154 1448.3C542.242 1460.17 549.189 1473.76 549.295 1473.97C549.999 1475.4 551.736 1475.99 553.173 1475.28C554.601 1474.58 555.19 1472.84 554.486 1471.4C554.177 1470.79 550.752 1464.03 543.004 1455.85C556.155 1462.93 562.986 1467.62 562.986 1467.62C562.986 1467.62 579.63 1465.69 576.784 1458.21C575.365 1454.47 575.838 1451.38 576.581 1449.24C576.957 1449.25 577.343 1449.26 577.729 1449.26C579.553 1449.26 581.425 1449.12 583.326 1448.85C592.801 1447.53 598.445 1441.22 600.539 1434.49C602.314 1436.49 604.717 1439.66 607.804 1444.62C614.761 1455.8 614.076 1467.36 613.68 1470.79Z" fill="#41218C"/>
<path opacity="0.8" d="M552.219 1430.18C551.698 1430.7 551.11 1431.14 550.444 1431.45C544.173 1434.36 534.466 1447.93 534.205 1447.71C533.183 1446.89 532.121 1446.07 531.012 1445.24C534.398 1441.12 542.166 1432.37 552.277 1425.51C552.065 1427.09 552.055 1428.65 552.219 1430.18Z" fill="#A28CF1"/>
<path opacity="0.8" d="M496.141 1434.86C483.916 1440.84 466.144 1453.75 453.475 1480.89C440.796 1508.04 441.404 1527.93 443.923 1539.52C442.07 1539.32 440.603 1539.12 439.571 1538.96C438.249 1533.1 434.998 1512.18 446.972 1483.78C459.775 1453.45 484.669 1436.49 489.715 1433.3C491.925 1433.76 494.067 1434.28 496.141 1434.86Z" fill="#A28CF1"/>
<path opacity="0.18" d="M480.914 1432.31C470.937 1439.68 452.441 1455.94 441.644 1481.52C430.413 1508.14 431.773 1528.36 433.327 1537.34C430.644 1537.03 426.64 1536.21 422.26 1534.05C424.759 1523.47 428.454 1508.59 433.693 1489.09C442.995 1454.45 469.49 1437.96 480.914 1432.31Z" fill="#41218C"/>
<path d="M887.346 1463.37C904.241 1484.94 906.161 1501.28 904.791 1511.2C903.103 1523.51 896.242 1529.39 894.187 1530.9C887.906 1535.5 881.644 1536.92 877.929 1537.34C879.483 1528.36 880.843 1508.13 869.622 1481.52C858.4 1454.94 838.891 1438.44 829.242 1431.51C837.974 1431.36 864.074 1433.68 887.346 1463.37Z" fill="#FAEFF9"/>
<path opacity="0.18" d="M887.346 1463.37C904.241 1484.94 906.161 1501.28 904.791 1511.2C903.103 1523.51 896.242 1529.39 894.187 1530.9C887.906 1535.5 881.644 1536.92 877.929 1537.34C879.483 1528.36 880.843 1508.13 869.622 1481.52C858.4 1454.94 838.891 1438.44 829.242 1431.51C837.974 1431.36 864.074 1433.68 887.346 1463.37Z" fill="#41218C"/>
<path d="M871.686 1538.96C869.487 1539.29 865.347 1539.82 859.732 1540.12C845.326 1540.91 821.282 1540.2 795.915 1530.76C758.112 1516.69 705.15 1476.6 697.576 1470.79C697.161 1467.36 696.457 1455.87 703.452 1444.62C706.54 1439.66 708.942 1436.49 710.718 1434.49C712.811 1441.22 718.456 1447.53 727.931 1448.85C729.832 1449.12 731.703 1449.26 733.527 1449.26C737.946 1449.26 742.066 1448.48 745.665 1446.96C748.753 1445.69 751.454 1443.89 753.654 1441.6C757.851 1437.23 759.762 1431.41 758.98 1425.52C769.073 1432.37 776.859 1441.12 780.246 1445.24C772.247 1451.16 766.564 1457.33 762.792 1462.21C758.845 1467.29 756.993 1470.96 756.771 1471.4C756.066 1472.84 756.655 1474.57 758.083 1475.28C759.521 1475.99 761.248 1475.4 761.962 1473.97C762.039 1473.81 766.169 1465.74 775.827 1456.63C775.827 1456.63 775.827 1456.63 775.837 1456.62C775.846 1456.62 775.856 1456.61 775.865 1456.59C785.321 1447.68 800.084 1437.78 821.542 1433.3C826.598 1436.49 851.453 1453.38 864.286 1483.78C876.27 1512.19 873.008 1533.11 871.686 1538.96Z" fill="#A56EE3"/>
<path d="M749.478 1437.58C747.327 1439.82 744.509 1441.45 741.219 1442.42C737.543 1443.51 733.288 1443.76 728.734 1443.12C719.828 1441.88 716.104 1435.1 715.621 1429.68C715.312 1426.27 716.248 1422.43 718.824 1420.11C719.49 1422.95 719.867 1424.69 719.867 1424.72L719.953 1425.12L720.137 1425.47C720.368 1425.9 725.521 1435.47 735.575 1435.47C736.163 1435.47 736.771 1435.43 737.398 1435.36C737.437 1435.36 737.475 1435.36 737.514 1435.36C741.373 1434.9 744.22 1433.39 745.995 1430.87C748.562 1427.2 747.664 1422.97 747.549 1422.5C747.114 1420.62 746.593 1418.59 746.005 1416.4C748.793 1417.5 752.122 1419.98 753.145 1425.6C753.946 1430.03 752.653 1434.29 749.478 1437.58Z" fill="#56F2F1"/>
<path d="M741.245 1427.55C740.464 1428.66 738.988 1429.35 736.836 1429.6C736.363 1429.66 735.9 1429.68 735.456 1429.66C729.686 1429.57 726.232 1424.42 725.441 1423.08C725.2 1422 724.553 1419.07 723.53 1415.03C721.398 1406.55 718.311 1395.68 714.528 1386.33C713.206 1383.06 711.798 1379.99 710.312 1377.26C710.129 1376.93 709.887 1376.65 709.617 1376.43C710.698 1374.9 712.589 1373.24 715.918 1372.26C720.192 1371.01 723.569 1371.76 725.73 1372.64C725.586 1373.21 725.605 1373.82 725.827 1374.4C727.187 1377.91 734.221 1396.25 739.171 1413.42C740.31 1417.39 741.207 1420.79 741.911 1423.82C741.911 1423.84 742.336 1426 741.245 1427.55Z" fill="#FAEFF9"/>
<path d="M891.9 1459.8C910.039 1482.96 912.046 1500.97 910.522 1511.98C909.171 1521.81 904.347 1530.63 897.612 1535.57C889.005 1541.88 880.505 1543.08 876.491 1543.27L876.25 1544.02L874.581 1544.35C873.828 1544.5 864.749 1546.22 850.874 1546.22C835.967 1546.22 815.531 1544.23 793.889 1536.18C752.457 1520.76 695.511 1476.53 693.108 1474.65L692.25 1473.99L692.047 1472.93C691.922 1472.27 689.037 1456.83 698.531 1441.57C702.796 1434.71 706.655 1429.84 709.791 1427.33C710.081 1421.53 712.879 1416.64 717.317 1414.1C714.866 1404.68 710.486 1389.7 705.218 1380.02C704.61 1378.9 704.832 1377.56 705.661 1376.67C706.26 1374.17 708.093 1370.43 713.583 1368.07C722.431 1364.3 731.838 1372.02 731.838 1372.02L731.25 1372.36C733.131 1377.22 739.374 1393.61 744.179 1409.93C747.681 1410.49 752.274 1412.37 755.468 1416.63C769.922 1424.35 780.921 1436.85 785.022 1441.93C794.391 1435.85 806.394 1430.39 821.523 1427.39L822.594 1427.18L823.192 1427.53L823.896 1426.18L825.353 1425.96C826.82 1425.74 861.545 1421.06 891.9 1459.8ZM904.791 1511.2C906.161 1501.28 904.241 1484.94 887.346 1463.37C864.073 1433.68 837.974 1431.36 829.242 1431.51C838.89 1438.44 858.4 1454.94 869.621 1481.52C880.843 1508.13 879.482 1528.36 877.929 1537.34C881.643 1536.92 887.905 1535.5 894.187 1530.9C896.242 1529.39 903.102 1523.51 904.791 1511.2ZM871.686 1538.96C873.008 1533.11 876.269 1512.19 864.286 1483.78C851.453 1453.38 826.598 1436.49 821.542 1433.3C778.123 1442.36 762.116 1473.65 761.961 1473.97C761.247 1475.4 759.52 1475.99 758.083 1475.28C756.655 1474.57 756.066 1472.84 756.77 1471.4C757.205 1470.52 763.901 1457.33 780.246 1445.24C776.859 1441.12 769.072 1432.37 758.98 1425.52C759.761 1431.41 757.851 1437.23 753.654 1441.6C748.868 1446.58 741.718 1449.26 733.527 1449.26C731.703 1449.26 729.831 1449.12 727.931 1448.85C718.456 1447.53 712.811 1441.22 710.717 1434.49C708.942 1436.49 706.539 1439.66 703.452 1444.62C696.457 1455.87 697.161 1467.36 697.576 1470.78C705.15 1476.6 758.112 1516.69 795.915 1530.76C831.162 1543.87 863.851 1540.14 871.686 1538.96ZM749.476 1437.58C752.65 1434.29 753.943 1430.03 753.143 1425.6C752.12 1419.97 748.791 1417.5 746.003 1416.4C746.591 1418.59 747.112 1420.62 747.546 1422.5C747.662 1422.97 748.559 1427.2 745.993 1430.87C744.218 1433.39 741.371 1434.9 737.512 1435.35C736.846 1435.43 736.199 1435.47 735.572 1435.47C725.518 1435.47 720.366 1425.9 720.134 1425.47L719.951 1425.12L719.864 1424.72C719.864 1424.69 719.488 1422.95 718.822 1420.11C716.246 1422.43 715.31 1426.27 715.619 1429.68C716.101 1435.1 719.826 1441.88 728.731 1443.12C737.377 1444.34 744.931 1442.32 749.476 1437.58ZM741.246 1427.55C742.336 1426 741.911 1423.84 741.911 1423.82C741.207 1420.79 740.31 1417.39 739.171 1413.42C734.222 1396.25 727.188 1377.91 725.827 1374.4C725.605 1373.82 725.586 1373.21 725.731 1372.64C723.569 1371.76 720.192 1371.01 715.918 1372.26C712.589 1373.24 710.698 1374.9 709.617 1376.43C709.888 1376.65 710.129 1376.93 710.312 1377.26C716.034 1387.79 720.655 1403.6 723.531 1415.03C724.553 1419.07 725.2 1422 725.441 1423.08C726.3 1424.52 730.237 1430.39 736.836 1429.6C738.988 1429.35 740.464 1428.66 741.246 1427.55Z" fill="#41218C"/>
<path d="M979.811 1013.57C989.286 1031.96 997.787 1062.76 984.501 1104.97C974.997 1135.18 960.9 1154.52 942.587 1162.45C935.843 1165.38 929.417 1166.34 923.869 1166.34C916.497 1166.34 910.698 1164.63 907.736 1163.55C894.836 1179.23 879.62 1195.85 860.477 1211.39C860.525 1213.55 860.4 1217.74 859.213 1223.77C859.193 1229.1 857.505 1274.55 807.776 1327.99C790.022 1347.08 768.197 1361.66 742.995 1371.47C717.802 1381.28 689.232 1386.33 657.98 1386.33H657.971C635.451 1386.33 575.638 1386.33 512.478 1336.99C479.962 1311.58 466.358 1282.04 460.675 1261.73C454.943 1241.21 455.85 1226.04 456.072 1223.44C455.107 1215.62 455.223 1209.86 455.377 1207.21C439.534 1194.19 425.573 1179.81 413.994 1164.73C412.701 1164.84 410.781 1164.97 408.35 1164.97C403.95 1164.97 397.92 1164.56 391.069 1163.02C378.275 1160.13 360.087 1152.49 346.097 1132.57C319.929 1095.31 329.26 1013.02 349.175 989.972C366.089 970.376 379.346 973.434 383.099 974.882L949.659 980.845L952.766 982.958C953.673 982.572 954.744 982.649 955.593 983.276C956.153 983.681 969.516 993.552 979.811 1013.57ZM978.982 1103.24C991.621 1063.04 983.69 1033.87 974.804 1016.48C965.146 997.585 952.313 988.043 952.187 987.946C952.062 987.859 951.956 987.753 951.85 987.647C947.305 990.725 938.39 996.475 923.396 1005.06C931.057 1017.1 939.2 1041.53 940.271 1069.3C941.159 1092.51 937.415 1126.24 914.538 1155.11C913.593 1156.31 912.628 1157.52 911.653 1158.73C917.124 1160.36 928.268 1162.38 940.387 1157.1C957.041 1149.83 970.018 1131.71 978.982 1103.24ZM910.003 1151.52C931.78 1124.03 935.341 1091.76 934.482 1069.53C933.45 1042.63 925.644 1019.21 918.359 1007.93V1007.92C914.78 1009.94 910.92 1012.09 906.723 1014.37C870.058 1034.39 814.096 1038.5 813.372 1038.5C813.179 1038.5 800.588 1038.56 782.207 1038.66C782.284 1038.92 782.332 1039.18 782.332 1039.46V1132.45L781.049 1133.31C735.198 1163.98 679.815 1166.27 666.452 1166.36V1182.2C681.967 1186.91 693.294 1201.34 693.294 1218.38C693.294 1237.05 679.68 1252.59 661.859 1255.62L662.37 1270.02C799.131 1268.13 864.298 1209.2 910.003 1151.52ZM825.028 1280.89C848.445 1248.99 853.453 1226.21 854.446 1216.15C845.956 1222.65 836.741 1228.92 826.649 1234.82C780.981 1261.48 727.248 1274.91 662.583 1275.8L665.323 1352.06C667.233 1352.07 669.144 1352.08 671.054 1352.08C719.973 1352.08 792.753 1324.86 825.028 1280.89ZM844.344 1261.73C840.456 1268.66 835.66 1276.2 829.698 1284.32C796.352 1329.75 721.382 1357.87 671.054 1357.87C669.211 1357.87 667.378 1357.86 665.535 1357.85L666.346 1380.41C723.437 1378.68 770.744 1359.29 803.53 1324.06C825.153 1300.82 837.397 1279.05 844.344 1261.73ZM776.543 1039.46C776.543 1039.19 776.591 1038.94 776.659 1038.7C772.906 1038.72 768.959 1038.74 764.868 1038.76C764.926 1038.99 764.965 1039.22 764.965 1039.46V1120.92L763.894 1121.79C762.495 1122.92 728.83 1149.46 657.971 1149.46C587.246 1149.46 545.12 1121.52 543.354 1120.34L542.08 1119.48V1040.16C537.652 1039.99 533.339 1039.78 529.219 1039.51V1129.31C571.383 1155.2 648.775 1161.47 649.557 1161.53L652.23 1161.73V1180.74C653.31 1180.64 654.401 1180.58 655.51 1180.58C657.257 1180.58 658.974 1180.72 660.662 1180.95V1160.44L663.654 1160.55C664.281 1160.58 726.09 1162.36 776.543 1129.36V1039.46ZM759.175 1039.46C759.175 1039.23 759.214 1039.01 759.262 1038.78C707.352 1039.07 636.801 1039.46 636.801 1039.46C636.801 1039.46 588.799 1041.6 547.87 1040.37V1116.34C555.396 1120.93 595.775 1143.67 657.971 1143.67C719.954 1143.67 752.981 1122.5 759.175 1118.09V1039.46ZM687.505 1218.38C687.505 1200.73 673.148 1186.37 655.51 1186.37C637.863 1186.37 623.506 1200.73 623.506 1218.38C623.506 1236.02 637.863 1250.38 655.51 1250.38C673.148 1250.38 687.505 1236.02 687.505 1218.38ZM651.815 1270.02L652.48 1256.03C633.048 1254.48 617.716 1238.19 617.716 1218.38C617.716 1200.66 629.97 1185.76 646.44 1181.69V1167.06C631.919 1165.71 563.906 1158.23 524.771 1133.35L523.43 1132.5V1039.08C515.904 1038.47 509.207 1037.65 503.891 1036.57C468.191 1029.33 420.99 1003.11 409.411 996.688C406.488 995.057 403.217 993.06 399.975 990.985C398.441 993.253 391.166 1004.6 386.206 1022.67C381.102 1041.26 377.474 1070.99 389.168 1107.07C401.567 1145.29 433.629 1185.59 474.935 1214.87C509.902 1239.67 568.827 1269.14 651.815 1270.02ZM647.936 1351.72L651.535 1275.8C567.167 1274.86 507.2 1244.85 471.578 1219.6C468.008 1217.06 464.505 1214.45 461.08 1211.78C461.138 1217.74 461.881 1228 465.422 1240.29C470.584 1258.21 482.963 1284.22 512.613 1306.34C560.712 1342.22 604.488 1350.14 647.936 1351.72ZM646.575 1380.41L647.666 1357.5C603.282 1355.91 558.531 1347.81 509.159 1310.97C486.002 1293.7 472.919 1274.12 465.528 1257.44C465.779 1258.43 466.039 1259.41 466.329 1260.42C471.8 1279.83 484.864 1308.07 516.048 1332.43C568.933 1373.75 619.453 1379.59 646.575 1380.41ZM350.834 1129.25C370.238 1156.87 398.421 1159.37 409.855 1159.14C398.113 1142.84 389.159 1125.81 383.669 1108.86C371.482 1071.29 375.323 1040.27 380.697 1020.87C385.849 1002.25 393.211 990.648 395.122 987.821C390.789 984.945 386.843 982.205 384.219 980.362C383.369 980.864 382.279 980.931 381.343 980.41C380.919 980.188 369.9 974.824 353.555 993.754C336.583 1013.4 325.304 1092.89 350.834 1129.25Z" fill="#41218C"/>
<path d="M978.981 1103.24C972.043 1125.27 962.703 1141.1 951.125 1150.5C947.738 1153.26 944.159 1155.46 940.386 1157.1C930.882 1161.25 921.986 1160.89 915.946 1159.76C914.277 1159.45 912.829 1159.08 911.652 1158.73C912.627 1157.52 913.592 1156.31 914.537 1155.11C937.414 1126.24 941.158 1092.51 940.27 1069.3C939.199 1041.53 931.056 1017.1 923.395 1005.06C938.389 996.476 947.304 990.725 951.849 987.647C951.955 987.753 952.061 987.859 952.186 987.946C952.312 988.043 965.145 997.585 974.803 1016.48C983.689 1033.87 991.621 1063.04 978.981 1103.24Z" fill="#56F2F1"/>
<path d="M910.004 1151.52C872.914 1198.33 823.002 1245.96 732.41 1263.26C732.391 1263.27 732.362 1263.27 732.343 1263.28C713.615 1266.85 693.14 1269.13 670.678 1269.82C667.938 1269.91 665.169 1269.98 662.371 1270.02L661.859 1255.62C679.68 1252.59 693.295 1237.05 693.295 1218.38C693.295 1205.23 686.55 1193.64 676.342 1186.87C675.039 1186 673.679 1185.21 672.261 1184.52C670.408 1183.59 668.469 1182.81 666.452 1182.2V1166.36C679.815 1166.27 735.199 1163.98 781.049 1133.31L782.333 1132.45V1039.46C782.333 1039.18 782.284 1038.92 782.207 1038.66C786.125 1038.64 789.781 1038.62 793.11 1038.6C805.393 1038.53 813.218 1038.5 813.372 1038.5C814.096 1038.5 870.058 1034.39 906.723 1014.37C910.92 1012.09 914.78 1009.94 918.36 1007.92V1007.93C925.644 1019.21 933.45 1042.63 934.482 1069.53C935.341 1091.76 931.781 1124.03 910.004 1151.52Z" fill="#A28CF1"/>
<path d="M854.446 1216.15C854.041 1220.28 852.96 1226.53 850.21 1234.68C846.254 1246.41 838.844 1262.06 825.027 1280.89C795.126 1321.62 730.47 1347.98 682.227 1351.63C678.387 1351.93 674.652 1352.08 671.053 1352.08C669.143 1352.08 667.233 1352.07 665.322 1352.06L662.582 1275.8C727.247 1274.91 780.981 1261.48 826.648 1234.82C836.74 1228.92 845.955 1222.65 854.446 1216.15Z" fill="#FAEFF9"/>
<path d="M844.344 1261.73C837.397 1279.05 825.153 1300.82 803.53 1324.06C774.083 1355.71 732.921 1374.57 683.482 1379.33C677.876 1379.87 672.164 1380.23 666.346 1380.41L665.535 1357.85C667.378 1357.86 669.211 1357.87 671.054 1357.87C674.74 1357.87 678.561 1357.71 682.488 1357.41C732.14 1353.65 798.793 1326.42 829.698 1284.32C835.66 1276.2 840.456 1268.66 844.344 1261.73Z" fill="#A56EE3"/>
<path d="M776.659 1038.7C776.591 1038.94 776.543 1039.19 776.543 1039.46V1129.36C726.09 1162.37 664.281 1160.58 663.654 1160.55L660.662 1160.45V1180.95C658.974 1180.72 657.257 1180.58 655.51 1180.58C654.401 1180.58 653.31 1180.64 652.23 1180.74V1161.73L649.557 1161.53C648.775 1161.47 571.383 1155.2 529.219 1129.31V1039.51C533.339 1039.78 537.652 1039.99 542.08 1040.16V1119.48L543.354 1120.34C545.12 1121.52 587.246 1149.46 657.971 1149.46C728.83 1149.46 762.495 1122.92 763.894 1121.79L764.965 1120.92V1039.46C764.965 1039.22 764.926 1038.99 764.868 1038.76C768.959 1038.74 772.906 1038.72 776.659 1038.7Z" fill="#FAEFF9"/>
<path d="M759.262 1038.78C759.214 1039.01 759.175 1039.23 759.175 1039.46V1118.09C753.077 1122.43 720.976 1143.01 660.855 1143.65C660.672 1143.66 660.498 1143.65 660.324 1143.65C659.543 1143.67 658.761 1143.67 657.97 1143.67C595.775 1143.67 555.395 1120.93 547.869 1116.34V1040.37C562.053 1040.79 577.085 1040.82 590.671 1040.67C616.298 1040.38 636.801 1039.46 636.801 1039.46C636.801 1039.46 707.352 1039.07 759.262 1038.78Z" fill="#A56EE3"/>
<path d="M655.51 1186.37C673.148 1186.37 687.505 1200.73 687.505 1218.38C687.505 1236.02 673.148 1250.38 655.51 1250.38C637.863 1250.38 623.506 1236.02 623.506 1218.38C623.506 1200.73 637.863 1186.37 655.51 1186.37ZM676.467 1218.38C676.467 1206.82 667.07 1197.41 655.51 1197.41C643.942 1197.41 634.544 1206.82 634.544 1218.38C634.544 1229.93 643.942 1239.34 655.51 1239.34C667.07 1239.34 676.467 1229.93 676.467 1218.38Z" fill="#FAEFF9"/>
<path d="M655.51 1197.41C667.069 1197.41 676.466 1206.82 676.466 1218.38C676.466 1229.93 667.069 1239.34 655.51 1239.34C643.941 1239.34 634.543 1229.93 634.543 1218.38C634.543 1206.82 643.941 1197.41 655.51 1197.41ZM670.677 1218.38C670.677 1210.01 663.875 1203.2 655.51 1203.2C647.134 1203.2 640.332 1210.01 640.332 1218.38C640.332 1226.74 647.134 1233.55 655.51 1233.55C663.875 1233.55 670.677 1226.74 670.677 1218.38Z" fill="#41218C"/>
<path d="M670.677 1218.38C670.677 1223.98 667.618 1228.89 663.084 1231.52C660.855 1232.82 658.259 1233.55 655.509 1233.55C647.134 1233.55 640.332 1226.74 640.332 1218.38C640.332 1210.01 647.134 1203.2 655.509 1203.2C656.358 1203.2 657.179 1203.27 657.989 1203.4C665.177 1204.59 670.677 1210.86 670.677 1218.38Z" fill="#56F2F1"/>
<path d="M652.48 1256.03L651.814 1270.02C626.274 1269.75 603.011 1266.77 582.035 1262.06C534.824 1251.44 499.143 1232.04 474.935 1214.87C433.629 1185.59 401.566 1145.29 389.168 1107.07C377.473 1070.99 381.101 1041.26 386.206 1022.67C391.165 1004.6 398.44 993.253 399.974 990.985C401.364 991.873 402.753 992.751 404.123 993.591C405.956 994.7 407.741 995.752 409.411 996.688C415.48 1000.06 431.323 1008.85 450.186 1017.52C467.303 1025.37 486.899 1033.12 503.89 1036.57C509.207 1037.65 515.903 1038.47 523.429 1039.08V1132.5L524.77 1133.35C563.905 1158.23 631.918 1165.71 646.44 1167.06V1181.69C629.969 1185.76 617.716 1200.66 617.716 1218.38C617.716 1238.19 633.047 1254.48 652.48 1256.03Z" fill="#A28CF1"/>
<path d="M651.535 1275.8L650.869 1289.87L647.936 1351.72C604.488 1350.14 560.712 1342.22 512.614 1306.34C482.963 1284.22 470.584 1258.21 465.422 1240.29C461.881 1228 461.138 1217.74 461.08 1211.78C464.505 1214.45 468.008 1217.06 471.578 1219.6C489.196 1232.09 512.778 1245.74 542.322 1256.47C572.503 1267.43 608.898 1275.32 651.535 1275.8Z" fill="#FAEFF9"/>
<path d="M647.665 1357.5L646.575 1380.41C621.797 1379.65 577.5 1374.72 529.701 1342.37C525.175 1339.31 520.621 1336 516.048 1332.43C484.863 1308.07 471.799 1279.83 466.328 1260.42C466.039 1259.41 465.778 1258.43 465.527 1257.44C472.224 1272.54 483.58 1290.03 502.858 1306.02C504.875 1307.68 506.968 1309.34 509.159 1310.97C558.531 1347.81 603.281 1355.91 647.665 1357.5Z" fill="#A56EE3"/>
<path d="M409.855 1159.14C402.773 1159.29 389.284 1158.38 375.419 1151.11C366.89 1146.66 358.225 1139.78 350.834 1129.25C325.304 1092.89 336.583 1013.4 353.555 993.755C364.67 980.883 373.316 979.243 377.85 979.581C379.983 979.735 381.208 980.333 381.343 980.41C381.961 980.758 382.655 980.845 383.292 980.7C383.62 980.652 383.939 980.526 384.219 980.362C386.843 982.205 390.789 984.945 395.121 987.821C393.211 990.648 385.849 1002.25 380.697 1020.87C375.322 1040.27 371.482 1071.29 383.669 1108.86C388.203 1122.86 395.112 1136.93 403.998 1150.59C405.86 1153.46 407.819 1156.32 409.855 1159.14Z" fill="#56F2F1"/>
<path opacity="0.32" d="M503.89 1036.57C509.206 1037.65 515.903 1038.47 523.429 1039.08V1059.14C497.667 1056.36 480.714 1050.61 468.75 1038.78C463.25 1033.34 456.843 1025.87 450.186 1017.52C467.302 1025.37 486.899 1033.12 503.89 1036.57Z" fill="#41218C"/>
<path opacity="0.32" d="M529.219 1039.51C533.339 1039.78 537.652 1039.99 542.08 1040.16V1060.59C537.574 1060.35 533.29 1060.06 529.219 1059.7V1039.51Z" fill="#41218C"/>
<path opacity="0.32" d="M759.175 1061.65H645.002C604.767 1061.65 573.071 1061.94 547.869 1060.87V1040.37C588.799 1041.6 636.801 1039.46 636.801 1039.46C636.801 1039.46 707.352 1039.07 759.262 1038.78C759.214 1039.01 759.175 1039.23 759.175 1039.46V1061.65Z" fill="#41218C"/>
<path opacity="0.32" d="M764.966 1039.46C764.966 1039.22 764.927 1038.99 764.869 1038.76C768.96 1038.74 772.907 1038.72 776.66 1038.7C776.592 1038.94 776.544 1039.19 776.544 1039.46V1061.65H764.966V1039.46Z" fill="#41218C"/>
<path opacity="0.32" d="M910.003 1151.52C872.914 1198.33 823.002 1245.96 732.41 1263.26C777.44 1251.72 835.902 1222.11 864.211 1163.95C892.51 1105.79 876.571 1057.15 876.571 1057.15C876.571 1057.15 865.639 1061.65 838.623 1061.65H782.332V1039.46C782.332 1039.18 782.284 1038.92 782.207 1038.66C800.588 1038.56 813.179 1038.5 813.372 1038.5C814.096 1038.5 870.058 1034.39 906.723 1014.37C910.92 1012.09 914.78 1009.94 918.359 1007.92V1007.93C925.644 1019.21 933.45 1042.63 934.482 1069.53C935.341 1091.76 931.781 1124.03 910.003 1151.52Z" fill="#41218C"/>
<path opacity="0.32" d="M660.324 1143.65C659.543 1143.67 658.761 1143.67 657.97 1143.67C595.775 1143.67 555.395 1120.93 547.869 1116.34V1040.37C562.053 1040.79 577.085 1040.82 590.671 1040.67V1115.68C590.671 1115.68 613.22 1142.8 660.324 1143.65Z" fill="#41218C"/>
<path opacity="0.32" d="M695.9 1232.11C690.352 1255.9 670.678 1257.44 670.678 1257.44V1269.82C667.938 1269.91 665.169 1269.98 662.371 1270.02L661.859 1255.62C679.68 1252.59 693.295 1237.05 693.295 1218.38C693.295 1205.23 686.55 1193.64 676.342 1186.87C690.96 1193.26 700.985 1210.29 695.9 1232.11Z" fill="#41218C"/>
<path opacity="0.32" d="M793.109 1038.6V1134.02C793.109 1134.02 782.255 1148.49 747.761 1160.07C713.267 1171.65 672.26 1171.41 672.26 1171.41V1184.52C670.407 1183.59 668.468 1182.81 666.451 1182.2V1166.36C679.815 1166.27 735.198 1163.98 781.048 1133.31L782.332 1132.45V1039.46C782.332 1039.18 782.284 1038.92 782.206 1038.66C786.124 1038.64 789.78 1038.62 793.109 1038.6Z" fill="#41218C"/>
<path opacity="0.32" d="M542.322 1256.47C572.503 1267.43 608.898 1275.32 651.536 1275.8L650.87 1289.87C580.695 1287.35 542.322 1256.47 542.322 1256.47Z" fill="#41218C"/>
<path opacity="0.32" d="M682.488 1357.41L683.482 1379.32C677.876 1379.87 672.164 1380.23 666.346 1380.41L665.535 1357.85C667.378 1357.86 669.211 1357.87 671.054 1357.87C674.74 1357.87 678.561 1357.71 682.488 1357.41Z" fill="#41218C"/>
<path opacity="0.32" d="M854.446 1216.15C854.041 1220.28 852.96 1226.53 850.21 1234.68C800.085 1282.14 679.544 1292.57 679.544 1292.57L682.227 1351.63C678.387 1351.93 674.652 1352.08 671.053 1352.08C669.143 1352.08 667.233 1352.07 665.322 1352.06L662.582 1275.8C727.247 1274.91 780.981 1261.48 826.648 1234.82C836.74 1228.92 845.955 1222.65 854.446 1216.15Z" fill="#41218C"/>
<path opacity="0.8" d="M529.701 1342.37C525.175 1339.31 520.621 1336 516.048 1332.43C484.863 1308.07 471.799 1279.83 466.328 1260.42C466.039 1259.41 465.778 1258.43 465.527 1257.44C472.224 1272.54 483.58 1290.03 502.858 1306.02C508.126 1316.79 516.482 1329.69 529.701 1342.37Z" fill="#A28CF1"/>
<path opacity="0.8" d="M582.035 1262.06C534.824 1251.44 499.143 1232.04 474.935 1214.87C433.629 1185.59 401.566 1145.29 389.168 1107.07C377.473 1070.99 381.101 1041.26 386.206 1022.67C391.165 1004.6 398.44 993.253 399.974 990.985C401.364 991.873 402.753 992.751 404.123 993.591C396.549 1010.52 389.669 1033.62 389.631 1061.69C389.554 1124.17 426.942 1171.07 479.691 1212.85C513.23 1239.41 555.617 1254.55 582.035 1262.06Z" fill="#A28CF1"/>
<path opacity="0.8" d="M652.481 1256.03C652.481 1256.03 625.706 1257.76 615.575 1233.16C605.608 1208.94 621.123 1184.73 646.441 1178.91V1181.69C629.971 1185.76 617.717 1200.66 617.717 1218.38C617.717 1238.19 633.048 1254.48 652.481 1256.03Z" fill="#A28CF1"/>
<path opacity="0.8" d="M375.419 1151.11C366.89 1146.66 358.225 1139.78 350.834 1129.25C325.304 1092.89 336.583 1013.4 353.555 993.755C364.67 980.883 373.316 979.243 377.85 979.581C368.038 983.691 352.851 995.549 346.376 1029.81C338.04 1073.95 343.347 1126.48 375.419 1151.11Z" fill="#A28CF1"/>
<path opacity="0.22" d="M403.998 1150.59C388.907 1142.08 372.138 1125.1 365.191 1091.23C354.327 1038.22 374.048 996.543 383.292 980.7C383.62 980.651 383.938 980.526 384.218 980.362C386.843 982.205 390.789 984.945 395.121 987.82C393.211 990.647 385.849 1002.25 380.696 1020.87C375.322 1040.27 371.482 1071.29 383.668 1108.86C388.203 1122.86 395.112 1136.93 403.998 1150.59Z" fill="#41218C"/>
<path opacity="0.22" d="M978.981 1103.24C972.043 1125.27 962.703 1141.1 951.125 1150.5C974.137 1105.87 964.373 1077.57 964.373 1077.57L948.607 1081.91C947.574 1115.7 930.361 1146.75 915.946 1159.76C914.277 1159.45 912.829 1159.08 911.652 1158.73C912.627 1157.52 913.592 1156.31 914.537 1155.11C937.414 1126.24 941.158 1092.51 940.27 1069.3C939.199 1041.53 931.056 1017.1 923.395 1005.06C938.389 996.476 947.304 990.725 951.849 987.647C951.955 987.753 952.061 987.859 952.186 987.946C952.312 988.043 965.145 997.585 974.803 1016.48C983.689 1033.87 991.621 1063.04 978.981 1103.24Z" fill="#41218C"/>
<path opacity="0.8" d="M663.084 1231.52C660.855 1232.82 658.259 1233.55 655.509 1233.55C647.134 1233.55 640.332 1226.74 640.332 1218.38C640.332 1210.01 647.134 1203.2 655.509 1203.2C656.358 1203.2 657.179 1203.27 657.989 1203.4C643.622 1205.9 643.555 1230.37 663.084 1231.52Z" fill="#A28CF1"/>
<g opacity="0.8">
<path d="M474.703 1185.29C473.777 1185.29 472.831 1184.99 472.04 1184.37C466.067 1179.74 460.403 1174.71 455.183 1169.4C453.505 1167.69 453.524 1164.94 455.232 1163.26C456.94 1161.58 459.689 1161.6 461.368 1163.31C466.308 1168.34 471.692 1173.11 477.356 1177.51C479.247 1178.98 479.595 1181.71 478.118 1183.6C477.279 1184.71 475.996 1185.29 474.703 1185.29Z" fill="#A28CF1"/>
</g>
<g opacity="0.8">
<path d="M442.892 1152.53C441.551 1152.53 440.229 1151.92 439.38 1150.74C407.703 1107.14 407.636 1062.43 407.655 1060.55C407.674 1058.16 409.614 1056.24 411.997 1056.24C412.007 1056.24 412.016 1056.24 412.026 1056.24C414.419 1056.26 416.349 1058.21 416.339 1060.61C416.339 1061.15 416.522 1104.48 446.414 1145.63C447.823 1147.57 447.398 1150.29 445.449 1151.7C444.667 1152.26 443.77 1152.53 442.892 1152.53Z" fill="#A28CF1"/>
</g>
<path d="M1101.61 603.341V727.809C1101.61 746.787 1095.86 784.089 1079.7 826.765C1066.9 860.574 1043.09 909.204 1002.31 948.908C913.264 1035.62 829.812 1042.36 806.356 1042.36H540.796C517.34 1042.36 433.889 1035.62 344.841 948.908C304.066 909.204 280.243 860.574 267.44 826.765C251.278 784.089 245.547 746.787 245.547 727.809V603.341C245.547 587.527 252.388 548.266 270.354 508.301C270.411 508.099 270.489 507.896 270.595 507.703C270.633 507.616 270.682 507.539 270.73 507.452C278.015 491.387 287.094 475.235 298.258 460.473C354.577 371.802 413.82 329.319 536.937 329.319H855.343C895.983 329.319 940.897 344.438 978.576 370.808C1025.34 403.536 1059.89 452.407 1078.52 512.151C1078.52 512.18 1078.52 512.199 1078.53 512.228C1095.2 550.804 1101.61 588.038 1101.61 603.341ZM1095.82 727.809V603.341C1095.82 588.443 1089.58 552.213 1073.36 514.65C1073.21 514.419 1073.07 514.158 1072.99 513.869C1072.94 513.734 1072.89 513.599 1072.85 513.454C1060.59 485.395 1042.74 456.72 1017.73 435.743C957.098 384.885 915.242 365.984 863.283 365.984H483.869C431.911 365.984 390.055 384.885 329.423 435.743C319.668 443.916 311.013 453.275 303.352 463.3C294.128 477.763 285 493.491 275.67 510.492C275.622 510.569 275.574 510.627 275.525 510.694C258.013 549.646 251.336 587.922 251.336 603.341V727.809C251.336 746.295 256.971 782.767 272.862 824.72C285.454 857.979 308.861 905.798 348.874 944.759C436.369 1029.95 517.89 1036.57 540.796 1036.57H806.356C829.253 1036.57 910.784 1029.95 998.268 944.759C1038.28 905.798 1061.7 857.979 1074.29 824.72C1090.18 782.767 1095.82 746.295 1095.82 727.809ZM1021.45 431.305C1034.2 442.005 1045.13 454.655 1054.46 468.202C1008.03 377.108 922.912 335.108 855.343 335.108H536.937C432.326 335.108 374.733 366.533 325.187 431.749C325.361 431.604 325.525 431.45 325.698 431.305C387.508 379.472 430.377 360.194 483.869 360.194H863.283C916.776 360.194 959.645 379.472 1021.45 431.305Z" fill="#41218C"/>
<path d="M1073.36 514.65C1073.21 514.419 1073.07 514.158 1072.99 513.869C1072.94 513.734 1072.89 513.599 1072.85 513.454C1060.59 485.396 1042.74 456.72 1017.73 435.744C957.097 384.885 915.241 365.984 863.283 365.984H483.869C431.911 365.984 390.055 384.885 329.423 435.744C319.668 443.916 311.013 453.275 303.352 463.3C294.128 477.763 285 493.491 275.67 510.492C275.622 510.569 275.573 510.627 275.525 510.694C258.013 549.646 251.336 587.922 251.336 603.341V727.809C251.336 746.295 256.971 782.768 272.862 824.72C285.454 857.979 308.861 905.798 348.874 944.759C369.059 964.413 388.926 979.89 407.837 992.057C470.862 1032.65 523.178 1036.57 540.796 1036.57H806.356C809.772 1036.57 814.49 1036.42 820.347 1035.88C853.712 1032.84 923.838 1017.24 998.268 944.759C1038.28 905.798 1061.7 857.979 1074.29 824.72C1090.18 782.768 1095.82 746.295 1095.82 727.809V603.341C1095.82 588.443 1089.58 552.213 1073.36 514.65ZM1057.24 798.379C1048.44 836.279 1031.79 870.898 1006.32 904.206C973.828 946.718 932.831 972.721 904.165 987.049C872.932 1002.66 839.673 1012.54 813.458 1014.13C810.949 1014.3 808.508 1014.37 806.134 1014.37H533.077C488.201 1014.37 392.814 973.705 345.497 909.966C321.433 877.556 306.748 848.243 297.871 814.907C289.603 783.877 286.071 748.592 286.071 696.933C286.071 607.991 310.627 546.51 363.357 503.468C405.165 469.35 459.062 447.775 514.378 442.507C523.168 441.668 531.987 441.243 540.796 441.243H846.977C883.613 441.243 960.552 465.384 1011.04 530.165C1061.77 595.246 1065.68 643.412 1065.68 704.353C1065.68 733.55 1065.03 764.86 1057.24 798.379Z" fill="#A28CF1"/>
<path d="M1065.68 704.353C1065.68 733.55 1065.03 764.859 1057.24 798.379C1048.44 836.279 1031.79 870.898 1006.32 904.206C973.827 946.718 932.83 972.721 904.164 987.049C869.94 1004.16 833.294 1014.37 806.133 1014.37H533.076C488.2 1014.37 392.813 973.705 345.496 909.966C321.433 877.556 306.747 848.243 297.871 814.907C289.602 783.877 286.07 748.592 286.07 696.933C286.07 607.991 310.626 546.51 363.356 503.467C411.802 463.927 476.477 441.243 540.795 441.243H846.976C883.612 441.243 960.551 465.384 1011.04 530.165C1061.77 595.246 1065.68 643.412 1065.68 704.353ZM1059.89 704.353C1059.89 644.57 1056.06 597.339 1006.47 533.716C957.251 470.565 882.522 447.032 846.976 447.032H540.795C477.789 447.032 414.446 469.234 367.023 507.954C315.74 549.81 291.86 609.863 291.86 696.933C291.86 796.16 306.024 847.085 350.147 906.512C396.403 968.823 489.387 1008.58 533.076 1008.58H806.133C853.103 1008.58 944.833 975.114 1001.72 900.693C1055.45 830.413 1059.89 767.716 1059.89 704.353Z" fill="#41218C"/>
<path d="M1006.47 533.716C1056.06 597.339 1059.9 644.57 1059.9 704.353C1059.9 767.716 1055.45 830.413 1001.72 900.694C944.835 975.114 853.105 1008.58 806.135 1008.58H533.078C489.389 1008.58 396.405 968.823 350.149 906.512C306.026 847.086 291.861 796.16 291.861 696.933C291.861 609.863 315.742 549.81 367.024 507.954C414.448 469.234 477.791 447.032 540.797 447.032H846.978C882.524 447.032 957.253 470.566 1006.47 533.716ZM1037.59 812.244C1050.25 769.182 1049.87 749.19 1049.11 709.351C1048.89 697.927 1048.64 684.969 1048.64 669.27C1048.64 596.268 1007.02 549.27 968.011 510.945C927.959 471.608 874.322 457.646 840.552 457.646H515.247C494.927 457.646 469.252 463.406 444.812 473.46C412.614 486.708 383.398 506.459 357.984 532.153C300.545 590.257 300.545 652.51 300.545 724.596C300.545 766.519 304.54 795.977 313.889 823.07C324.3 853.222 342.169 881.618 370.122 912.436C431.149 979.707 496.008 997.653 524.713 997.653H796.168C852.381 997.653 907.167 978.057 946.475 943.9C988.717 907.197 1020.37 870.763 1037.59 812.244Z" fill="#27115C"/>
<path d="M1049.11 709.351C1049.87 749.19 1050.25 769.182 1037.59 812.244C1020.37 870.763 988.717 907.197 946.475 943.9C907.166 978.057 852.381 997.653 796.168 997.653H524.712C496.008 997.653 431.149 979.707 370.121 912.436C342.169 881.618 324.3 853.222 313.889 823.07C304.539 795.977 300.545 766.519 300.545 724.596C300.545 652.51 300.545 590.257 357.983 532.153C383.398 506.459 412.614 486.708 444.812 473.46C469.252 463.406 494.927 457.646 515.247 457.646H840.552C874.322 457.646 927.959 471.608 968.011 510.945C1007.02 549.27 1048.64 596.268 1048.64 669.27C1048.64 684.969 1048.89 697.927 1049.11 709.351ZM1032.03 810.614C1044.45 768.41 1044.09 749.933 1043.32 709.457C1043.1 698.004 1042.85 685.027 1042.85 669.27C1042.85 598.507 1002.13 552.579 963.949 515.075C925.151 476.963 873.222 463.435 840.552 463.435H515.247C485.095 463.435 418.915 478.767 362.103 536.225C306.334 592.641 306.334 650.87 306.334 724.596C306.334 796.826 316.861 845.108 374.415 908.548C434.073 974.313 496.963 991.864 524.712 991.864H796.168C851.001 991.864 904.407 972.788 942.683 939.529C984.153 903.492 1015.22 867.782 1032.03 810.614Z" fill="#41218C"/>
<path d="M1032.03 810.613C1015.22 867.782 984.153 903.492 942.683 939.529C904.407 972.788 851.001 991.864 796.168 991.864H524.712C496.963 991.864 434.073 974.313 374.415 908.547C316.861 845.107 306.334 796.825 306.334 724.596C306.334 695.466 306.334 668.768 309.769 643.643C315.037 605.145 328.362 570.352 362.103 536.225C418.915 478.767 485.095 463.435 515.247 463.435H840.552C873.222 463.435 925.151 476.963 963.949 515.075C965.406 516.512 966.872 517.95 968.339 519.417C1005.18 556.13 1042.85 601.208 1042.85 669.27C1042.85 685.026 1043.1 698.004 1043.32 709.457C1044.09 749.933 1044.45 768.41 1032.03 810.613Z" fill="#FAEFF9"/>
<path d="M1054.46 468.202C1045.13 454.655 1034.2 442.006 1021.45 431.305C1005.24 417.71 990.336 406.363 976.2 397.014C936.429 370.683 902.745 360.194 863.282 360.194H483.868C446.575 360.194 414.445 369.563 377.462 392.807C361.397 402.899 344.415 415.607 325.697 431.305C325.523 431.45 325.359 431.604 325.186 431.749C342.003 409.615 359.747 391.369 379.942 376.945C419.241 348.819 467.831 335.108 536.935 335.108H855.341C922.911 335.108 1008.03 377.109 1054.46 468.202Z" fill="#FAEFF9"/>
<path opacity="0.32" d="M968.339 519.417C933.623 497.138 889.365 486.331 839.597 486.331H554.489C399.821 486.331 335.84 563.415 309.77 643.643C315.038 605.145 328.363 570.352 362.104 536.225C418.915 478.767 485.095 463.435 515.248 463.435H840.552C873.223 463.435 925.152 476.963 963.949 515.075C965.406 516.512 966.873 517.95 968.339 519.417Z" fill="#41218C"/>
<path opacity="0.18" d="M779.379 360.194H671.777L649.498 347.651L641.943 335.108H728.038L779.379 360.194Z" fill="#41218C"/>
<path opacity="0.26" d="M1054.46 468.202C1045.13 454.655 1034.2 442.006 1021.45 431.305C1005.25 417.71 990.338 406.363 976.203 397.014C971.842 388.436 965.686 380.592 956.992 375.169C926.194 355.949 798.204 337.018 785.072 335.108H855.343C922.913 335.108 1008.03 377.109 1054.46 468.202Z" fill="#41218C"/>
<path opacity="0.18" d="M610.461 360.194H483.87C446.578 360.194 414.448 369.563 377.465 392.807C378.324 387.346 379.192 381.73 379.945 376.945C419.244 348.819 467.834 335.108 536.938 335.108H571.683L610.461 360.194Z" fill="#41218C"/>
<path opacity="0.32" d="M1095.82 603.341V727.809C1095.82 746.296 1090.18 782.768 1074.29 824.72C1061.7 857.979 1038.28 905.798 998.267 944.759C923.837 1017.24 853.711 1032.84 820.346 1035.88C815.811 1028.3 813.997 1020.64 813.457 1014.13C839.672 1012.54 872.931 1002.66 904.164 987.049C932.83 972.721 973.827 946.718 1006.32 904.206C1031.79 870.898 1048.44 836.279 1057.24 798.379C1065.03 764.86 1065.68 733.55 1065.68 704.353C1065.68 643.412 1061.77 595.246 1011.04 530.165C960.551 465.384 883.612 441.243 846.976 441.243H540.795C531.986 441.243 523.167 441.668 514.377 442.507C522.82 436.429 533.954 432.077 548.514 432.077H851C876.173 432.077 895.258 440.963 895.856 441.234C894.94 440.307 841.573 387.134 709.55 365.984H863.282C915.24 365.984 957.096 384.885 1017.73 435.744C1042.74 456.72 1060.59 485.396 1072.85 513.454C1072.89 513.599 1072.94 513.734 1072.99 513.869C1073.07 514.158 1073.21 514.419 1073.36 514.65C1089.58 552.213 1095.82 588.443 1095.82 603.341Z" fill="#41218C"/>
<path opacity="0.8" d="M407.837 992.057C388.926 979.89 369.059 964.413 348.874 944.759C308.861 905.798 285.454 857.979 272.862 824.72C256.971 782.768 251.336 746.295 251.336 727.809V603.341C251.336 587.922 258.013 549.646 275.525 510.694C275.573 510.627 275.622 510.569 275.67 510.492C285 493.491 294.128 477.763 303.352 463.3C311.013 453.275 319.668 443.916 329.423 435.744C390.055 384.885 431.911 365.984 483.869 365.984H538.22C538.22 365.984 455.83 366.495 394.783 399.329C333.736 432.164 260.985 507.173 260.985 600.446C260.985 693.72 260.985 673.13 260.985 719.443C260.985 765.757 273.846 837.157 319.523 904.061C346.095 942.984 382.249 973.416 407.837 992.057Z" fill="#A28CF1"/>
<g opacity="0.8">
<path d="M436.909 410.319C436.899 410.329 436.88 410.329 436.87 410.338C420.101 417.671 403.341 427.889 389.708 437.133C388.955 437.644 388.116 437.885 387.276 437.885C385.877 437.885 384.517 437.22 383.677 435.985C382.326 433.997 382.847 431.295 384.835 429.954C398.343 420.788 414.881 410.705 431.718 403.169C431.756 403.15 431.785 403.14 431.824 403.131C442.534 398.779 445.834 406.161 436.909 410.319Z" fill="#A28CF1"/>
</g>
<g opacity="0.8">
<path d="M347.832 467.758C346.732 467.758 345.632 467.343 344.793 466.513C343.094 464.844 343.046 462.133 344.696 460.425C344.966 460.145 347.658 457.453 360.144 448.074C362.064 446.637 364.785 447.023 366.222 448.933C367.66 450.853 367.274 453.574 365.364 455.012C353.583 463.869 351.026 466.378 350.92 466.484C350.061 467.333 348.942 467.758 347.832 467.758Z" fill="#A28CF1"/>
</g>
<path d="M939.769 364.121C935.301 361.593 930.506 359.123 925.354 356.759C915.232 352.089 903.76 347.834 890.831 344.37C868.851 338.494 849.718 334.828 833.836 332.57C837.57 322.507 850.557 290.627 876.444 257.282C893.098 235.833 903.48 226.676 910.08 227.573C914.489 228.172 918.522 233.681 923.588 245.993C933.893 271.098 940.367 327.389 939.769 364.121Z" fill="#FAEFF9"/>
<path d="M983.477 399.329C978.373 393.299 969.757 384.403 956.992 375.169C953.48 372.612 949.649 370.036 945.481 367.489C946.562 330.264 940.145 271.07 928.934 243.793C923.849 231.394 918.822 222.923 910.862 221.833C901.609 220.578 890.677 229.522 871.871 253.731C844.479 289.016 831.193 322.864 827.97 331.779C816.063 330.264 806.222 329.56 798.686 329.261C795.116 329.126 792.067 329.077 789.549 329.077C788.073 329.077 786.789 329.097 785.689 329.116C793.717 312.202 826.503 246.138 866.555 206.24C883.836 189.017 899.418 179.465 913.052 177.7C916.873 177.198 920.558 177.323 924.071 178.056C925.113 178.278 926.135 178.549 927.149 178.886C940.348 183.132 951.463 196.582 960.234 218.938C980.158 269.748 987.356 325.498 983.477 399.329Z" fill="#A28CF1"/>
<path d="M965.618 216.815C986.131 269.13 993.377 326.443 989.093 402.629C988.987 404.569 987.723 406.199 985.88 406.788C985.417 406.932 984.935 407.01 984.462 407.01C983.092 407.01 981.77 406.392 980.873 405.263C973.521 396.078 945.211 364.922 889.326 349.967C831.791 334.568 794.142 334.587 783.982 334.953C782.351 335.011 780.856 334.249 779.959 332.889C779.061 331.538 778.945 329.849 779.63 328.383C786.047 314.691 820.193 244.246 862.464 202.14C886.084 178.616 907.205 168.601 925.258 172.393C941.844 175.876 955.429 190.822 965.618 216.815ZM983.478 399.329C987.357 325.498 980.159 269.748 960.234 218.938C950.788 194.864 938.631 181.115 924.071 178.056C908.045 174.699 888.699 184.174 866.555 206.24C826.504 246.137 793.718 312.202 785.69 329.116C786.79 329.097 788.073 329.077 789.549 329.077C797.384 329.077 810.429 329.55 827.97 331.779C831.193 322.864 844.479 289.016 871.872 253.731C890.677 229.522 901.609 220.578 910.862 221.832C918.822 222.923 923.849 231.394 928.934 243.793C940.146 271.07 946.562 330.264 945.481 367.489C964.731 379.279 976.965 391.639 983.478 399.329ZM939.769 364.121C940.368 327.389 933.893 271.099 923.589 245.993C918.523 233.681 914.49 228.172 910.08 227.573C903.481 226.676 893.099 235.833 876.445 257.282C850.558 290.627 837.571 322.507 833.837 332.57C849.718 334.828 868.852 338.494 890.831 344.371C910.331 349.59 926.522 356.634 939.769 364.121Z" fill="#41218C"/>
<path opacity="0.32" d="M983.479 399.329C978.375 393.299 969.759 384.403 956.994 375.169C964.761 302.573 963.439 235.37 927.15 178.886C940.35 183.132 951.465 196.582 960.236 218.938C980.16 269.748 987.358 325.498 983.479 399.329Z" fill="#41218C"/>
<path opacity="0.18" d="M925.354 356.759C915.232 352.089 903.76 347.834 890.831 344.37C868.851 338.494 849.718 334.828 833.836 332.57C837.57 322.507 850.557 290.627 876.444 257.282C893.098 235.833 903.48 226.676 910.08 227.573C877.525 246.62 872.71 329.319 872.71 329.319C872.71 329.319 904.522 341.399 925.354 356.759Z" fill="#41218C"/>
<path opacity="0.8" d="M913.052 177.699C845.135 208.199 810.236 294.699 798.686 329.261C795.116 329.126 792.067 329.077 789.549 329.077C788.073 329.077 786.789 329.097 785.689 329.116C793.717 312.202 826.503 246.137 866.555 206.24C883.836 189.017 899.418 179.465 913.052 177.699Z" fill="#A28CF1"/>
<path d="M568.574 328.383C569.259 329.849 569.143 331.538 568.245 332.889C567.348 334.249 565.843 335.011 564.222 334.953C554.052 334.587 516.413 334.568 458.878 349.967C402.993 364.922 374.684 396.078 367.331 405.263C366.434 406.392 365.112 407.01 363.742 407.01C363.269 407.01 362.787 406.932 362.324 406.788C360.481 406.199 359.217 404.569 359.111 402.629C354.827 326.443 362.073 269.13 382.586 216.815C392.775 190.822 406.36 175.876 422.946 172.393C440.989 168.601 462.12 178.616 485.74 202.14C528.011 244.246 562.157 314.691 568.574 328.383ZM520.234 331.789C541.065 329.135 555.548 328.962 562.514 329.116C554.486 312.202 521.7 246.137 481.649 206.24C462.409 187.068 445.273 177.4 430.598 177.4C428.388 177.4 426.236 177.613 424.133 178.056C409.573 181.115 397.416 194.864 387.97 218.938C368.045 269.748 360.847 325.498 364.726 399.329C371.239 391.639 383.474 379.279 402.723 367.489C401.642 330.264 408.058 271.079 419.26 243.793C424.355 231.394 429.382 222.923 437.342 221.832C446.605 220.568 457.537 229.522 476.332 253.731C503.725 289.016 517.011 322.864 520.234 331.789ZM514.367 332.58C510.633 322.507 497.617 290.589 471.759 257.282C455.105 235.833 444.723 226.666 438.124 227.573C433.714 228.172 429.681 233.681 424.615 245.993C414.311 271.099 407.836 327.389 408.435 364.121C421.682 356.634 437.873 349.59 457.373 344.371C479.352 338.494 498.486 334.838 514.367 332.58Z" fill="#41218C"/>
<path d="M562.515 329.116C556.687 328.991 545.601 329.087 529.941 330.679C526.882 330.988 523.64 331.355 520.234 331.789C517.012 322.864 503.726 289.016 476.333 253.731C457.537 229.522 446.605 220.569 437.343 221.832C429.383 222.923 424.356 231.394 419.261 243.793C408.059 271.079 401.643 330.264 402.723 367.489C391.849 374.146 383.223 380.987 376.595 387.056C371.481 391.755 367.563 395.991 364.727 399.329C360.848 325.498 368.046 269.748 387.97 218.938C396.23 197.885 406.563 184.724 418.769 179.716C420.515 178.992 422.31 178.442 424.134 178.056C425.706 177.728 427.298 177.526 428.919 177.439C429.479 177.41 430.039 177.4 430.598 177.4C445.274 177.4 462.41 187.068 481.649 206.24C521.701 246.138 554.487 312.202 562.515 329.116Z" fill="#A28CF1"/>
<path d="M514.367 332.58C508.684 333.391 502.596 334.375 496.102 335.581C484.437 337.732 471.489 340.598 457.373 344.371C437.873 349.591 421.682 356.634 408.435 364.122C407.836 327.389 414.311 271.099 424.615 245.993C429.681 233.681 433.714 228.172 438.124 227.574C440.053 227.303 442.311 227.902 444.955 229.426C451.342 233.093 459.978 242.114 471.759 257.282C497.617 290.589 510.633 322.507 514.367 332.58Z" fill="#FAEFF9"/>
<path opacity="0.32" d="M562.515 329.116C556.688 328.991 545.601 329.087 529.941 330.679C515.961 276.396 477.453 195.617 428.92 177.439C429.48 177.41 430.039 177.4 430.599 177.4C445.274 177.4 462.41 187.068 481.65 206.24C521.701 246.138 554.488 312.202 562.515 329.116Z" fill="#41218C"/>
<path opacity="0.18" d="M462.234 223.174C462.524 223.164 462.823 223.174 463.112 223.183C463.112 223.183 462.775 223.203 462.234 223.174Z" fill="#41218C"/>
<path opacity="0.18" d="M496.102 335.581C484.437 337.732 471.489 340.598 457.373 344.371C437.873 349.591 421.682 356.634 408.435 364.122C407.836 327.389 414.311 271.099 424.615 245.993C429.681 233.681 433.714 228.172 438.124 227.574C440.053 227.303 442.311 227.902 444.955 229.426C416.675 254.561 433.695 347.005 433.695 347.005C433.695 347.005 469.125 335.34 496.102 335.581Z" fill="#41218C"/>
<path opacity="0.8" d="M418.769 179.716L418.74 179.764C392.071 189.876 368.635 302.679 376.595 387.056C371.481 391.755 367.563 395.991 364.727 399.329C360.848 325.498 368.046 269.748 387.97 218.938C396.23 197.884 406.563 184.724 418.769 179.716Z" fill="#A28CF1"/>
<path d="M738.515 103.54C738.515 114.713 735.679 125.24 730.681 134.435C719.681 154.697 698.213 168.485 673.57 168.485C637.764 168.485 608.625 139.356 608.625 103.54C608.625 67.7241 637.764 38.5947 673.57 38.5947C698.579 38.5947 720.337 52.7976 731.173 73.5711V73.5808C735.862 82.5444 738.515 92.7431 738.515 103.54Z" fill="#FAEFF9"/>
<path d="M681.85 6.1463C679.119 5.90509 676.359 5.78931 673.571 5.78931C656.734 5.78931 640.872 10.0733 627.026 17.5993C627.016 17.6089 627.016 17.6089 627.016 17.6089C596.546 34.1757 575.82 66.4891 575.82 103.54C575.82 152.497 612.003 193.166 659.021 200.21C663.768 200.924 668.631 201.291 673.571 201.291C675.896 201.291 678.212 201.213 680.499 201.04C731.183 197.479 771.322 155.112 771.322 103.54C771.322 52.431 731.897 10.3531 681.85 6.1463ZM723.358 153.732C710.564 166.43 692.965 174.274 673.571 174.274C634.571 174.274 602.837 142.54 602.837 103.54C602.837 64.54 634.571 32.8056 673.571 32.8056C693.881 32.8056 712.224 41.4122 725.133 55.1712C737.021 67.8302 744.305 84.8505 744.305 103.54C744.305 123.146 736.287 140.919 723.358 153.732Z" fill="#A28CF1"/>
<path d="M702.113 203.075V336.314C700.82 338.466 694.355 347.005 673.572 347.005C673.321 347.005 673.08 347.005 672.839 346.995C652.577 346.802 646.286 338.388 645.041 336.324V203.075C650.55 204.658 656.253 205.796 662.09 206.443C665.853 206.867 669.684 207.08 673.572 207.08C683.472 207.08 693.043 205.681 702.113 203.075Z" fill="#A28CF1"/>
<path d="M777.111 103.54C777.111 148.609 748.175 187.03 707.901 201.223V337.646L707.66 338.205C707.399 338.794 700.925 352.794 673.571 352.794C646.217 352.794 639.753 338.794 639.492 338.205L639.251 337.646V201.223C598.977 187.03 570.031 148.609 570.031 103.54C570.031 46.4487 616.48 0 673.571 0C730.672 0 777.111 46.4487 777.111 103.54ZM771.322 103.54C771.322 49.6424 727.478 5.7892 673.571 5.7892C619.674 5.7892 575.82 49.6424 575.82 103.54C575.82 157.437 619.674 201.291 673.571 201.291C727.478 201.291 771.322 157.437 771.322 103.54ZM702.112 336.314V203.076C693.042 205.681 683.471 207.08 673.571 207.08C663.681 207.08 654.11 205.681 645.04 203.076V336.324C646.304 338.417 652.73 347.005 673.571 347.005C694.354 347.005 700.819 338.466 702.112 336.314Z" fill="#41218C"/>
<path d="M673.57 32.8054C712.58 32.8054 744.305 64.5399 744.305 103.54C744.305 142.54 712.58 174.274 673.57 174.274C634.57 174.274 602.836 142.54 602.836 103.54C602.836 64.5399 634.57 32.8054 673.57 32.8054ZM738.516 103.54C738.516 67.724 709.386 38.5946 673.57 38.5946C637.764 38.5946 608.625 67.724 608.625 103.54C608.625 139.356 637.764 168.485 673.57 168.485C709.386 168.485 738.516 139.356 738.516 103.54Z" fill="#41218C"/>
<path opacity="0.32" d="M702.112 203.075V336.314C700.82 338.466 694.355 347.005 673.572 347.005C673.321 347.005 673.08 347.005 672.838 346.995C674.228 342.972 675.231 338.784 675.231 335.108C675.231 323.269 675.231 212.251 675.231 212.251C675.231 212.251 668.757 211.788 662.09 206.443C665.853 206.867 669.683 207.08 673.572 207.08C683.471 207.08 693.043 205.681 702.112 203.075Z" fill="#41218C"/>
<path opacity="0.32" d="M771.323 103.54C771.323 155.112 731.184 197.479 680.5 201.04C691.828 194.141 703.435 183.778 714.473 168.485C717.898 163.748 720.851 158.807 723.359 153.732C736.289 140.919 744.307 123.146 744.307 103.54C744.307 84.8504 737.022 67.8302 725.135 55.1711C715.949 33.1722 700.733 15.1195 681.851 6.14624C731.898 10.3531 771.323 52.4309 771.323 103.54Z" fill="#41218C"/>
<path opacity="0.8" d="M659.021 200.21C612.003 193.166 575.82 152.497 575.82 103.54C575.82 66.489 596.546 34.1757 627.016 17.6089C602.605 36.2791 584.089 68.3512 584.697 106.917C585.45 154.591 614.232 187.657 659.021 200.21Z" fill="#A28CF1"/>
<g opacity="0.8">
<path d="M657.785 309.78C655.383 309.78 653.443 307.841 653.443 305.438V297.961C653.443 295.558 655.383 293.619 657.785 293.619C660.188 293.619 662.127 295.558 662.127 297.961V305.438C662.127 307.841 660.178 309.78 657.785 309.78Z" fill="#A28CF1"/>
</g>
<path d="M624.335 109.696C624.297 109.696 624.258 109.696 624.22 109.696C621.827 109.628 619.936 107.631 619.993 105.238C620.051 103.154 620.177 101.099 620.36 99.1304C620.582 96.7471 622.695 94.9911 625.088 95.213C627.471 95.4349 629.227 97.548 629.005 99.9409C628.841 101.726 628.726 103.588 628.677 105.479C628.61 107.833 626.68 109.696 624.335 109.696Z" fill="white"/>
<path d="M627.114 90.7456C626.709 90.7456 626.303 90.6878 625.898 90.572C623.592 89.9062 622.27 87.4941 622.936 85.188C631.649 55.2 655.973 50.4528 657.005 50.2598C659.36 49.8256 661.627 51.3984 662.052 53.7526C662.476 56.1069 660.923 58.3551 658.578 58.7989C657.719 58.9629 638.432 62.9768 631.282 87.6098C630.732 89.5106 628.995 90.7456 627.114 90.7456Z" fill="white"/>
<path opacity="0.32" d="M730.682 134.435C736.21 114.308 735.94 93.0808 731.174 73.5808C735.863 82.5444 738.516 92.7431 738.516 103.54C738.516 114.713 735.68 125.24 730.682 134.435Z" fill="#41218C"/>
<g opacity="0.8">
<path d="M657.785 286.865C655.383 286.865 653.443 284.925 653.443 282.523V233.315C653.443 230.912 655.383 228.973 657.785 228.973C660.188 228.973 662.127 230.912 662.127 233.315V282.523C662.127 284.925 660.178 286.865 657.785 286.865Z" fill="#A28CF1"/>
</g>
<path d="M814.799 595.931C851.946 595.931 882.166 626.15 882.166 663.298C882.166 700.435 851.946 730.655 814.799 730.655C777.651 730.655 747.432 700.435 747.432 663.298C747.432 626.15 777.651 595.931 814.799 595.931Z" fill="#6B55A0"/>
<path d="M532.353 595.931C569.491 595.931 599.711 626.15 599.711 663.298C599.711 700.435 569.491 730.655 532.353 730.655C495.206 730.655 464.986 700.435 464.986 663.298C464.986 626.15 495.206 595.931 532.353 595.931Z" fill="#6B55A0"/>
<path d="M814.799 590.142C855.14 590.142 887.955 622.957 887.955 663.298C887.955 703.629 855.14 736.444 814.799 736.444C774.467 736.444 741.643 703.629 741.643 663.298C741.643 622.957 774.467 590.142 814.799 590.142ZM882.166 663.298C882.166 626.15 851.946 595.931 814.799 595.931C777.651 595.931 747.432 626.15 747.432 663.298C747.432 700.435 777.651 730.655 814.799 730.655C851.946 730.655 882.166 700.435 882.166 663.298Z" fill="#41218C"/>
<path d="M532.353 590.142C572.685 590.142 605.5 622.957 605.5 663.298C605.5 703.629 572.685 736.444 532.353 736.444C492.012 736.444 459.197 703.629 459.197 663.298C459.197 622.957 492.012 590.142 532.353 590.142ZM599.711 663.298C599.711 626.15 569.491 595.931 532.353 595.931C495.206 595.931 464.986 626.15 464.986 663.298C464.986 700.435 495.206 730.655 532.353 730.655C569.491 730.655 599.711 700.435 599.711 663.298Z" fill="#41218C"/>
<path opacity="0.18" d="M736.836 1429.6C736.363 1429.66 735.9 1429.68 735.456 1429.66C735.012 1427.94 734.665 1426.08 734.472 1424.12C733.362 1412.77 723.154 1386.33 723.154 1386.33H714.528C713.206 1383.06 711.798 1379.99 710.312 1377.26C710.129 1376.93 709.887 1376.65 709.617 1376.43C710.698 1374.9 712.589 1373.24 715.918 1372.26C720.192 1371.01 723.569 1371.76 725.73 1372.64C725.586 1373.21 725.605 1373.82 725.827 1374.4C727.187 1377.91 734.221 1396.25 739.171 1413.42C740.31 1417.39 741.207 1420.79 741.911 1423.82C741.911 1423.84 742.336 1426 741.245 1427.55C740.464 1428.66 738.988 1429.35 736.836 1429.6Z" fill="#41218C"/>
<path opacity="0.32" d="M749.479 1437.58C747.327 1439.82 744.51 1441.45 741.219 1442.42C740.332 1441.13 738.797 1438.66 737.398 1435.36C737.437 1435.36 737.476 1435.36 737.514 1435.36C741.374 1434.9 744.22 1433.39 745.995 1430.87C748.562 1427.2 747.665 1422.97 747.549 1422.5C747.115 1420.62 746.594 1418.59 746.005 1416.4C748.794 1417.5 752.122 1419.98 753.145 1425.6C753.946 1430.03 752.653 1434.29 749.479 1437.58Z" fill="#41218C"/>
<path opacity="0.32" d="M780.247 1445.24C772.248 1451.16 766.565 1457.33 762.792 1462.21L758.518 1459.18L745.666 1446.96C748.754 1445.69 751.455 1443.89 753.655 1441.6C757.852 1437.23 759.763 1431.41 758.981 1425.52C769.074 1432.37 776.86 1441.12 780.247 1445.24Z" fill="#41218C"/>
<path opacity="0.32" d="M871.686 1538.96C869.486 1539.29 865.347 1539.82 859.732 1540.12C859.635 1531.92 859.326 1522.56 858.554 1514.18C856.625 1493.27 834.22 1442.94 812.241 1443.87C790.956 1444.76 776.734 1455.9 775.865 1456.59C785.321 1447.68 800.083 1437.78 821.542 1433.3C826.598 1436.49 851.453 1453.38 864.286 1483.78C876.269 1512.19 873.008 1533.11 871.686 1538.96Z" fill="#41218C"/>
<g opacity="0.8">
<path d="M842.798 1532.99C842.547 1532.99 836.565 1532.97 827.35 1531.61C824.977 1531.26 823.336 1529.05 823.693 1526.68C824.041 1524.31 826.25 1522.68 828.624 1523.02C837.211 1524.3 842.74 1524.31 842.798 1524.31C845.2 1524.31 847.14 1526.25 847.14 1528.65C847.14 1531.05 845.19 1532.99 842.798 1532.99Z" fill="#A28CF1"/>
</g>
<g opacity="0.8">
<path d="M808.806 1527.51C808.41 1527.51 808.005 1527.45 807.6 1527.34C804.194 1526.35 800.807 1525.24 797.546 1524.04C773.771 1515.25 753.229 1500.3 752.371 1499.66C750.441 1498.25 750.016 1495.53 751.435 1493.59C752.853 1491.67 755.564 1491.24 757.504 1492.66C757.706 1492.8 777.959 1507.53 800.566 1515.89C803.624 1517.02 806.808 1518.06 810.012 1518.99C812.318 1519.66 813.649 1522.06 812.984 1524.36C812.424 1526.27 810.697 1527.51 808.806 1527.51Z" fill="#A28CF1"/>
</g>
<path opacity="0.1" d="M372.841 848.098C372.841 848.098 340.104 810.15 340.104 748.399C340.104 686.647 340.104 691.79 340.104 659.631C340.104 627.472 371.626 542.564 457.171 503.969L468.749 548.999C468.749 548.999 434.014 562.507 394.773 612.034C355.532 661.561 358.108 691.153 358.108 738.113C358.118 785.064 358.629 816.576 372.841 848.098Z" fill="#A56EE3"/>
<path opacity="0.1" d="M426.941 904.707C426.941 904.707 503.484 961.316 561.376 961.316C619.268 961.316 750.114 961.316 798.222 961.316C846.33 961.316 903.586 938.806 956.972 882.197C1010.36 825.588 1020.65 772.849 1020.65 722.029C1020.65 671.21 1020.65 683.434 1020.65 657.701C1020.65 631.968 1005.86 541.271 917.731 494.321C917.731 494.321 906.799 608.213 848.26 704.362C848.26 704.362 814.808 676.362 781.366 709.814C747.914 743.266 760.785 793.439 773 799.865C773 799.865 723.474 849.392 632.13 889.279C540.796 929.147 426.941 904.707 426.941 904.707Z" fill="#A56EE3"/>
</svg>
